<svg width="96" height="27" viewBox="0 0 96 27" fill="none" xmlns="http://www.w3.org/2000/svg"><path d="M92.44 0H3.56A3.48 3.48 0 000 3.37v20.26C0 25.48 1.6 27 3.56 27h88.88A3.48 3.48 0 0096 23.62V3.38C96 1.52 94.4 0 92.44 0zm0 .54a2.92 2.92 0 013 2.83v20.26a2.92 2.92 0 01-3 2.83H3.56a2.92 2.92 0 01-3-2.84V3.38a2.92 2.92 0 013-2.83h88.88z" fill="#fff"/><path d="M24.62 13.69c-.02-1.86 1.5-2.76 1.58-2.8a3.38 3.38 0 00-2.67-1.46c-1.12-.12-2.21.68-2.78.68-.59 0-1.47-.67-2.42-.65a3.55 3.55 0 00-2.99 1.84c-1.29 2.26-.33 5.59.91 7.41.62.9 1.35 1.9 2.3 1.86.92-.04 1.27-.6 2.39-.6 1.1 0 1.43.6 2.4.58 1-.02 1.62-.9 2.22-1.8.71-1.03 1-2.04 1.01-2.1-.02 0-1.93-.73-1.95-2.96z" fill="#fff"/><path d="M22.75 8.25c.5-.63.84-1.49.74-2.35A3.3 3.3 0 0021.35 7a3.15 3.15 0 00-.77 2.27c.82.06 1.65-.41 2.17-1.03z" fill="#fff"/><path d="M33.4 17.28h2.51l-1.23-3.68h-.04l-1.23 3.68zm2.84 1.04h-3.16l-.76 2.27h-1.34l3-8.38h1.39l3 8.38H37l-.76-2.27z" fill="#fff"/><path d="M43.65 17.54c0-1.24-.63-2.05-1.6-2.05-.94 0-1.58.83-1.58 2.05 0 1.23.64 2.05 1.58 2.05.97 0 1.6-.8 1.6-2.05zm1.28 0c0 1.9-1 3.11-2.53 3.11-.86 0-1.54-.38-1.9-1.06h-.03v3.02h-1.24v-8.13h1.2v1.02h.02a2.14 2.14 0 011.93-1.08c1.54 0 2.55 1.22 2.55 3.12z" fill="#fff"/><path d="M50.26 17.54c0-1.24-.64-2.05-1.6-2.05-.95 0-1.6.83-1.6 2.05 0 1.23.65 2.05 1.6 2.05.96 0 1.6-.8 1.6-2.05zm1.27 0c0 1.9-1 3.11-2.52 3.11-.87 0-1.55-.38-1.9-1.06h-.04v3.02h-1.24v-8.13h1.2v1.02h.03a2.14 2.14 0 011.92-1.08c1.54 0 2.55 1.22 2.55 3.12z" fill="#fff"/><path d="M55.99 18.23c.1.83.89 1.38 1.98 1.38 1.05 0 1.8-.55 1.8-1.3 0-.65-.45-1.04-1.53-1.3l-1.07-.27c-1.53-.37-2.23-1.09-2.23-2.25 0-1.45 1.24-2.44 3.02-2.44 1.75 0 2.95.99 3 2.44H59.7c-.08-.84-.76-1.35-1.76-1.35s-1.69.51-1.69 1.26c0 .6.44.94 1.51 1.2l.92.23c1.7.4 2.4 1.1 2.4 2.33 0 1.56-1.23 2.55-3.2 2.55-1.84 0-3.08-.96-3.16-2.48h1.27z" fill="#fff"/><path d="M63.7 13.04v1.45h1.15v.99H63.7v3.37c0 .52.23.76.74.76l.4-.02v.98c-.13.04-.4.06-.68.06-1.23 0-1.7-.46-1.7-1.65v-3.5h-.89v-1h.88v-1.44h1.25z" fill="#fff"/><path d="M69.98 17.52c0-1.32-.6-2.1-1.6-2.1s-1.6.78-1.6 2.1.6 2.1 1.6 2.1 1.6-.78 1.6-2.1zm-4.47 0c0-1.93 1.12-3.13 2.87-3.13s2.87 1.2 2.87 3.13c0 1.92-1.11 3.13-2.87 3.13s-2.87-1.2-2.87-3.13z" fill="#fff"/><path d="M72.36 14.48h1.19v1.04h.03c.19-.7.74-1.1 1.45-1.1.18 0 .33.02.43.04v1.18c-.1-.04-.32-.08-.56-.08-.8 0-1.3.55-1.3 1.4v3.63h-1.24v-6.1z" fill="#fff"/><path d="M76.92 16.95h3.03c-.03-.93-.62-1.55-1.48-1.55s-1.48.63-1.55 1.55zm4.2 1.82c-.16 1.11-1.23 1.88-2.6 1.88-1.76 0-2.86-1.2-2.86-3.1 0-1.92 1.1-3.17 2.8-3.17 1.68 0 2.73 1.17 2.73 3.02v.43h-4.27v.07c0 1.05.65 1.73 1.63 1.73.69 0 1.23-.33 1.4-.86h1.17z" fill="#fff"/><path d="M32.49 9.35h.75c.83 0 1.31-.52 1.31-1.45 0-.9-.48-1.44-1.31-1.44h-.75v2.9zm.82-3.45c1.18 0 1.87.73 1.87 2 0 1.28-.68 2.02-1.87 2.02h-1.44V5.9h1.44z" fill="#fff"/><path d="M38.03 8.4c0-.66-.3-1.04-.8-1.04-.52 0-.81.38-.81 1.04 0 .67.29 1.05.8 1.05.52 0 .81-.39.81-1.05zm-2.23 0c0-.98.54-1.58 1.42-1.58.88 0 1.42.6 1.42 1.58 0 .99-.54 1.58-1.42 1.58-.88 0-1.42-.6-1.42-1.58z" fill="#fff"/><path d="M42.45 9.93h-.62l-.62-2.24h-.05l-.62 2.24h-.6l-.84-3.04h.6l.54 2.32h.05l.62-2.32h.57l.62 2.32h.04l.54-2.32h.6l-.83 3.04z" fill="#fff"/><path d="M44.05 6.88h.58v.49h.04c.15-.34.45-.55.9-.55.67 0 1.04.41 1.04 1.13v1.97h-.6V8.1c0-.48-.2-.73-.64-.73s-.72.3-.72.77v1.78h-.6V6.88z" fill="#fff"/><path d="M48.08 5.7h-.6v4.23h.6V5.7z" fill="#fff"/><path d="M51.1 8.4c0-.66-.29-1.04-.8-1.04-.52 0-.8.38-.8 1.04 0 .67.28 1.05.8 1.05.51 0 .8-.39.8-1.05zm-2.22 0c0-.98.54-1.58 1.42-1.58.88 0 1.42.6 1.42 1.58 0 .99-.54 1.58-1.42 1.58-.88 0-1.42-.6-1.42-1.58z" fill="#fff"/><path d="M54.37 8.8v-.25l-.74.05c-.41.02-.6.17-.6.43 0 .28.23.44.56.44.45 0 .78-.3.78-.67zm-1.94.26c0-.54.4-.86 1.12-.9l.82-.05v-.26c0-.33-.21-.5-.62-.5-.33 0-.56.12-.63.33h-.57c.06-.52.55-.86 1.23-.86.75 0 1.18.38 1.18 1.03v2.07h-.57V9.5h-.05c-.18.3-.5.48-.9.48-.58 0-1-.35-1-.9z" fill="#fff"/><path d="M56.35 8.4c0 .65.3 1.04.8 1.04s.81-.4.81-1.03-.31-1.03-.81-1.03-.8.39-.8 1.03zm-.62 0c0-.95.5-1.56 1.25-1.56.41 0 .76.2.93.53h.04V5.7h.6v4.23h-.58v-.48h-.04c-.18.33-.53.53-.95.53-.76 0-1.25-.61-1.25-1.57z" fill="#fff"/><path d="M63.17 8.4c0-.66-.3-1.04-.81-1.04-.52 0-.8.38-.8 1.04 0 .67.28 1.05.8 1.05.51 0 .8-.39.8-1.05zm-2.23 0c0-.98.54-1.58 1.42-1.58.87 0 1.42.6 1.42 1.58 0 .99-.54 1.58-1.42 1.58-.88 0-1.42-.6-1.42-1.58z" fill="#fff"/><path d="M64.62 6.88h.57v.49h.05c.14-.34.44-.55.9-.55.67 0 1.04.41 1.04 1.13v1.97h-.6V8.1c0-.48-.2-.73-.65-.73-.44 0-.72.3-.72.77v1.78h-.6V6.88z" fill="#fff"/><path d="M70.52 6.12v.77h.65v.5h-.65v1.57c0 .32.13.46.42.46l.23-.02v.5c-.1.02-.2.03-.33.03-.66 0-.92-.23-.92-.82V7.4h-.48v-.5h.48v-.77h.6z" fill="#fff"/><path d="M71.98 5.7h.6v1.68h.04c.14-.34.46-.55.92-.55.64 0 1.03.41 1.03 1.14v1.96h-.6V8.1c0-.48-.22-.73-.64-.73-.48 0-.75.31-.75.77v1.78h-.6V5.7z" fill="#fff"/><path d="M75.89 8.12h1.52c-.02-.48-.3-.79-.74-.79s-.75.32-.78.8zm2.09.98c-.14.55-.62.88-1.3.88-.87 0-1.4-.6-1.4-1.57 0-.97.54-1.59 1.4-1.59.83 0 1.33.58 1.33 1.54v.2H75.9v.04c.02.53.32.87.8.87.36 0 .6-.13.72-.37h.57z" fill="#fff"/></svg>