<svg xmlns="http://www.w3.org/2000/svg" xmlns:xlink="http://www.w3.org/1999/xlink" viewBox="0 0 678.13 192"><defs><style>.cls-1{fill:url(#linear-gradient);}.cls-2{fill:url(#linear-gradient-2);}.cls-3{fill:url(#linear-gradient-3);}.cls-4{fill:url(#linear-gradient-4);}.cls-5{font-size:111.64px;stroke:#0c0c0c;stroke-miterlimit:10;font-family:ArtifaktElement-Bold, Artifakt Element;font-weight:700;letter-spacing:-0.02em;}.cls-6{letter-spacing:-0.01em;}.cls-7{letter-spacing:-0.02em;}.cls-8{letter-spacing:-0.02em;}.cls-9{letter-spacing:0em;}</style><linearGradient id="linear-gradient" x1="131.62" y1="568.99" x2="-17.1" y2="558.98" gradientTransform="translate(36.9 -511.76)" gradientUnits="userSpaceOnUse"><stop offset="0" stop-color="#00c4ff"/><stop offset="1" stop-color="#001973"/></linearGradient><linearGradient id="linear-gradient-2" x1="71.96" y1="82.56" x2="-7.08" y2="77.24" gradientTransform="translate(13.53 11.93)" gradientUnits="userSpaceOnUse"><stop offset="0" stop-color="#001973"/><stop offset="1" stop-color="#00c4ff"/></linearGradient><linearGradient id="linear-gradient-3" x1="1275.28" y1="3608.44" x2="1126.56" y2="3598.43" gradientTransform="translate(1265.08 3741.99) rotate(180)" xlink:href="#linear-gradient"/><linearGradient id="linear-gradient-4" x1="1215.62" y1="3122.01" x2="1136.57" y2="3116.69" gradientTransform="translate(1288.45 3218.3) rotate(180)" xlink:href="#linear-gradient-2"/></defs><g id="graphics"><path class="cls-1" d="M150.34,25.35c.48,10.58-6.85,17.42-21.76,22.7-18.25,6.46-37.12,13.11-55.5,19.5C52.71,74.63,47.64,83.28,62.27,94.69c-4.76,6.3-21.33,5.14-30.48,4.23-10.25-3.77-13.23-12-12.65-18.72.83-9.56,9.23-18.66,20.73-25.13Q95,30,150.24,5,150.24,15.18,150.34,25.35Z"/><path class="cls-2" d="M62.27,94.69S60,93.6,56.38,91.63C39,82.28,16.34,67.82,39.87,55.07A92.38,92.38,0,0,0,20,67.42C3.4,80.88,6.64,102.53,7.44,118.69c.38,7.76,15.58,9.48,25.24,6.38,10.64-3.42,22-7.25,32.28-10.6C80.76,109.33,73,99.9,62.27,94.69Z"/><path class="cls-3" d="M8,165.42C7.5,154.85,14.82,148,29.74,142.73c18.26-6.46,37.12-13.12,55.5-19.51,20.36-7.07,25.44-15.73,10.81-27.14,4.76-6.29,21.33-5.13,30.48-4.22,10.25,3.76,13.23,12,12.65,18.71-.83,9.56-9.23,18.67-20.73,25.14Q63.34,160.79,8.08,185.77,8.08,175.6,8,165.42Z"/><path class="cls-4" d="M96.05,96.08s2.23,1.09,5.89,3.06c17.38,9.36,40,23.81,16.51,36.57a92.44,92.44,0,0,0,19.82-12.35c16.66-13.46,13.42-35.12,12.61-51.27-.39-7.77-15.57-9.49-25.24-6.38-10.64,3.41-22,7.25-32.28,10.6C77.56,81.44,85.33,90.87,96.05,96.08Z"/><text class="cls-5" transform="translate(165.07 132.23) scale(0.86 1)">SY<tspan class="cls-6" x="128.94" y="0">S</tspan><tspan class="cls-7" x="195.82" y="0">T</tspan><tspan class="cls-8" x="254.76" y="0">r</tspan><tspan class="cls-9" x="299.42" y="0">ading</tspan></text></g></svg>