<svg xmlns="http://www.w3.org/2000/svg" xmlns:xlink="http://www.w3.org/1999/xlink" viewBox="0 0 198.13 207.32"><defs><style>.cls-1{fill:url(#linear-gradient);}.cls-2{fill:url(#linear-gradient-2);}.cls-3{fill:url(#linear-gradient-3);}.cls-4{fill:url(#linear-gradient-4);}</style><linearGradient id="linear-gradient" x1="169.9" y1="571.95" x2="-9.44" y2="559.88" gradientTransform="translate(36.9 -511.76)" gradientUnits="userSpaceOnUse"><stop offset="0" stop-color="#00c4ff"/><stop offset="1" stop-color="#001973"/></linearGradient><linearGradient id="linear-gradient-2" x1="93.08" y1="90.9" x2="-2.05" y2="84.5" gradientTransform="translate(13.53 11.93)" gradientUnits="userSpaceOnUse"><stop offset="0" stop-color="#001973"/><stop offset="1" stop-color="#00c4ff"/></linearGradient><linearGradient id="linear-gradient-3" x1="-151.95" y1="3609.16" x2="-331.28" y2="3597.09" gradientTransform="translate(-160.62 3756.29) rotate(180)" xlink:href="#linear-gradient"/><linearGradient id="linear-gradient-4" x1="-228.76" y1="3128.12" x2="-323.9" y2="3121.71" gradientTransform="translate(-137.25 3232.6) rotate(180)" xlink:href="#linear-gradient-2"/></defs><g id="graphics"><path class="cls-1" d="M184.78,23.34c.58,12.13-8.25,20-26.2,26-22,7.42-44.7,15-66.84,22.37-24.53,8.12-30.64,18-13,31.13C73,110.08,53,108.75,42,107.71,29.68,103.39,26.09,94,26.79,86.24c1-11,11.1-21.4,25-28.82Q118.11,28.63,184.66,0,184.66,11.67,184.78,23.34Z"/><path class="cls-2" d="M78.72,102.86s-2.68-1.25-7.09-3.51C50.71,88.63,23.41,72.05,51.75,57.42A112.17,112.17,0,0,0,27.87,71.58c-20,15.44-16.14,40.27-15.18,58.8.47,8.91,18.76,10.88,30.4,7.32,12.81-3.92,26.48-8.32,38.88-12.16C101,119.65,91.63,108.83,78.72,102.86Z"/><path class="cls-3" d="M13.35,184c-.58-12.13,8.24-20,26.2-26,22-7.42,44.7-15.05,66.83-22.37,24.53-8.12,30.64-18,13-31.13,5.73-7.22,25.68-5.89,36.7-4.85,12.33,4.32,15.92,13.75,15.22,21.47-1,11-11.11,21.4-25,28.82Q80,178.69,13.46,207.32,13.46,195.65,13.35,184Z"/><path class="cls-4" d="M119.41,104.46s2.67,1.25,7.08,3.51c20.93,10.73,48.22,27.3,19.89,41.93a112.34,112.34,0,0,0,23.87-14.16c20.05-15.44,16.15-40.28,15.18-58.8C185,68,166.68,66.06,155,69.62c-12.82,3.92-26.48,8.32-38.88,12.16C97.14,87.67,106.5,98.48,119.41,104.46Z"/></g></svg>