<svg xmlns="http://www.w3.org/2000/svg" xmlns:xlink="http://www.w3.org/1999/xlink" viewBox="0 0 525.96 201.19"><defs><style>.cls-1{fill:url(#linear-gradient);}.cls-2{fill:url(#linear-gradient-2);}.cls-3{fill:url(#linear-gradient-3);}.cls-4{fill:url(#linear-gradient-4);}.cls-5{font-size:96.75px;fill:#fff;stroke:#0c0c0c;stroke-miterlimit:10;font-family:Ebrima-Bold, Ebrima;font-weight:700;}</style><linearGradient id="linear-gradient" x1="149.62" y1="574.09" x2="-17.03" y2="562.88" gradientTransform="translate(36.9 -511.76)" gradientUnits="userSpaceOnUse"><stop offset="0" stop-color="#00c4ff"/><stop offset="1" stop-color="#001973"/></linearGradient><linearGradient id="linear-gradient-2" x1="79.85" y1="88.58" x2="-8.43" y2="82.63" gradientTransform="translate(13.53 11.93)" gradientUnits="userSpaceOnUse"><stop offset="0" stop-color="#001973"/><stop offset="1" stop-color="#00c4ff"/></linearGradient><linearGradient id="linear-gradient-3" x1="941.32" y1="3575.48" x2="774.67" y2="3564.26" gradientTransform="translate(927.64 3715.36) rotate(180)" xlink:href="#linear-gradient"/><linearGradient id="linear-gradient-4" x1="871.55" y1="3089.96" x2="783.26" y2="3084.02" gradientTransform="translate(951.01 3191.67) rotate(180)" xlink:href="#linear-gradient-2"/></defs><g id="graphics"><path class="cls-1" d="M166,29.09C166.54,40,158.35,47,141.68,52.43c-20.41,6.64-41.51,13.48-62.06,20.05-22.77,7.28-28.44,16.18-12.09,27.91-5.31,6.47-23.84,5.28-34.07,4.35C22,100.87,18.67,92.41,19.32,85.49c.93-9.83,10.31-19.19,23.17-25.84q61.62-25.8,123.4-51.48Q165.89,18.63,166,29.09Z"/><path class="cls-2" d="M67.53,100.39S65.05,99.27,61,97.24C41.53,87.63,16.19,72.76,42.49,59.65a105,105,0,0,0-22.16,12.7c-18.61,13.84-15,36.1-14.09,52.71.43,8,17.41,9.76,28.21,6.57,11.9-3.52,24.59-7.46,36.1-10.9C88.21,115.45,79.52,105.75,67.53,100.39Z"/><path class="cls-3" d="M6.84,173.12c-.54-10.87,7.65-17.91,24.33-23.33,20.41-6.65,41.5-13.49,62.05-20.06,22.76-7.28,28.44-16.18,12.09-27.91,5.32-6.47,23.84-5.28,34.07-4.34,11.45,3.87,14.79,12.32,14.14,19.24-.92,9.83-10.32,19.19-23.17,25.85Q68.73,168.36,7,194,7,183.58,6.84,173.12Z"/><path class="cls-4" d="M105.31,101.82s2.48,1.12,6.58,3.15c19.42,9.62,44.76,24.48,18.46,37.6a105.6,105.6,0,0,0,22.16-12.7c18.62-13.84,15-36.11,14.1-52.72-.44-8-17.42-9.76-28.22-6.56-11.9,3.51-24.59,7.45-36.1,10.9C84.64,86.77,93.32,96.47,105.31,101.82Z"/><text class="cls-5" transform="translate(186.3 133.13) scale(0.62 1)">SYSTrading</text></g></svg>