<svg xmlns="http://www.w3.org/2000/svg" xmlns:xlink="http://www.w3.org/1999/xlink" viewBox="0 0 666.89 207.32"><defs><style>.cls-1{fill:url(#linear-gradient);}.cls-2{fill:url(#linear-gradient-2);}.cls-3{fill:url(#linear-gradient-3);}.cls-4{fill:url(#linear-gradient-4);}.cls-5{font-size:122.36px;stroke:#0c0c0c;stroke-miterlimit:10;font-family:ArtifaktElement-Bold, Artifakt Element;font-weight:700;}.cls-6{letter-spacing:-0.02em;}.cls-7{letter-spacing:-0.01em;}.cls-8{letter-spacing:-0.02em;}.cls-9{letter-spacing:-0.02em;}</style><linearGradient id="linear-gradient" x1="151.26" y1="574.76" x2="-16.7" y2="563.45" gradientTransform="translate(36.9 -511.76)" gradientUnits="userSpaceOnUse"><stop offset="0" stop-color="#00c4ff"/><stop offset="1" stop-color="#001973"/></linearGradient><linearGradient id="linear-gradient-2" x1="80.81" y1="91.42" x2="-8.32" y2="85.42" gradientTransform="translate(13.53 11.93)" gradientUnits="userSpaceOnUse"><stop offset="0" stop-color="#001973"/><stop offset="1" stop-color="#00c4ff"/></linearGradient><linearGradient id="linear-gradient-3" x1="1256.26" y1="3610.95" x2="1088.3" y2="3599.65" gradientTransform="translate(1242.62 3756.29) rotate(180)" xlink:href="#linear-gradient"/><linearGradient id="linear-gradient-4" x1="1185.81" y1="3127.61" x2="1096.68" y2="3121.61" gradientTransform="translate(1265.98 3232.6) rotate(180)" xlink:href="#linear-gradient-2"/></defs><g id="graphics"><path class="cls-1" d="M167.56,28.2c.54,11.47-7.72,18.89-24.54,24.62C122.42,59.83,101.14,67,80.4,74c-23,7.68-28.7,17.07-12.2,29.44C62.83,110.24,44.14,109,33.82,108c-11.56-4.08-14.93-13-14.27-20.3C20.48,77.32,30,67.45,42.93,60.43Q105.1,33.22,167.45,6.13,167.45,17.17,167.56,28.2Z"/><path class="cls-2" d="M68.2,103.41s-2.51-1.18-6.64-3.32C42,90,16.39,74.27,42.93,60.43a105.31,105.31,0,0,0-22.36,13.4C1.79,88.43,5.44,111.92,6.35,129.44c.43,8.43,17.57,10.3,28.47,6.93,12-3.71,24.81-7.87,36.42-11.5C89.06,119.3,80.29,109.06,68.2,103.41Z"/><path class="cls-3" d="M7,180.14c-.54-11.47,7.72-18.89,24.54-24.61,20.6-7,41.88-14.24,62.62-21.16,23-7.68,28.7-17.07,12.2-29.44,5.37-6.83,24.06-5.58,34.38-4.59,11.56,4.08,14.92,13,14.27,20.3-.93,10.37-10.41,20.25-23.38,27.27Q69.41,175.12,7.07,202.21,7.07,191.17,7,180.14Z"/><path class="cls-4" d="M106.32,104.93s2.5,1.18,6.64,3.32c19.6,10.14,45.16,25.82,18.63,39.66A105.56,105.56,0,0,0,154,134.51c18.78-14.6,15.13-38.09,14.22-55.61-.44-8.43-17.57-10.29-28.47-6.93-12,3.71-24.81,7.87-36.42,11.5C85.46,89,94.22,99.27,106.32,104.93Z"/><text class="cls-5" transform="translate(198.9 137.95) scale(0.71 1)"><tspan class="cls-6">SY</tspan><tspan class="cls-7" x="141.32" y="0">S</tspan><tspan class="cls-8" x="214.61" y="0">T</tspan><tspan class="cls-9" x="279.22" y="0">r</tspan><tspan x="328.16" y="0">ading</tspan></text></g></svg>