<svg width="582" height="114" viewBox="0 0 582 114" fill="none" xmlns="http://www.w3.org/2000/svg">
<path d="M581.7 101.7C571.9 101.7 562.2 101.7 551.9 101.7C551.9 97.5 551.9 93.1 551.9 87.4C549.5 90.6 548.1 93 546.3 95C534 108.7 509.5 108.1 497.4 93.9C484.9 79.1 485.7 51.8 498.7 37.5C511.1 23.8 541.1 21.9 551.4 44.6C551.4 33.8 551.4 24.1 551.4 13.7C561.8 13.7 571.7 13.7 581.7 13.7C581.7 43 581.7 72.4 581.7 101.7ZM551.7 66.3C551.9 56.4 545.8 50.3 535.6 50.2C525.9 50.1 519.2 56.2 519 65.5C518.8 74.8 525.3 81.5 534.7 81.7C544.9 81.9 551.5 75.9 551.7 66.3Z" fill="white"/>
<path d="M0 102C0 73.5 0 45.3 0 16.8C0.7 16.6 1.5 16.2 2.2 16.2C19.8 16.3 37.5 16.3 55.1 16.7C59.2 16.8 63.4 17.7 67.4 18.8C87.9 24.4 99 38.8 98.8 59.4C98.7 78.9 86.4 94.3 66.2 99.5C59.7 101.1 52.8 102 46 102.2C31.7 102.6 17.4 102.3 3.1 102.3C2.1 102.4 1.2 102.1 0 102ZM30.1 80.9C37.4 80.5 44 80.6 50.6 79.5C60 78 66 70.4 66.7 60.6C67.4 50 62.9 41.6 53.9 39.6C46.3 37.9 38.3 38.1 30.2 37.5C30.1 52.5 30.1 66.2 30.1 80.9Z" fill="white"/>
<path d="M364.7 26.8C375.2 27.2 385.3 29 394.3 34.7C413.9 47.1 416.5 77.1 399.4 92.8C382.5 108.3 349.2 109.2 331.8 94.2C320 84 316.4 70.6 320.1 55.7C323.9 40.3 335.2 32.3 349.9 28.8C354.7 27.6 359.8 27.4 364.7 26.8ZM348.4 65.9C348.4 76 354.9 82.4 364.9 82.3C374.6 82.2 381.2 75.7 381.3 66C381.4 56.1 374.7 49.6 364.6 49.7C354.7 49.8 348.4 56.1 348.4 65.9Z" fill="white"/>
<path d="M222.2 52.3C212.7 48.8 205.2 46 195.4 45.9C190.2 46.1 188.8 46.4 185.9 47C184.7 47.3 182.6 48.7 183 50.7C183.2 52 184.6 53.7 185.9 54C191.4 55.4 197 56.3 202.5 57.6C206.4 58.5 210.3 59.5 214 60.9C230 66.7 230 89.6 217.9 97.2C212.4 100.6 205.9 103.1 199.5 104C184.2 106.3 169.3 103.8 155.4 96.7C154.2 96.1 151.9 94.3 151.9 94.3C151.9 94.3 151.8 92.6 151.9 91C152.2 85.9 152 80.7 152 75.5C157.8 77.8 163.2 80.7 169 82.2C175.4 83.8 182.1 84.5 188.7 84.7C191 84.8 196 84.6 195.9 80.9C196 78 192.1 76.8 189.8 76C182.4 73.6 174.6 72.3 167.2 69.9C158.6 67.1 153 61.4 152.7 51.7C152.4 41.9 157.5 35.3 165.9 31.9C183.9 24.5 202 25.7 219.6 33.6C220.9 34.2 222.3 34.9 222.3 34.9C222.3 34.9 222.2 47.9 222.2 52.3Z" fill="white"/>
<path d="M310.2 57.2C299.7 51.1 289.6 49.1 279 51.8C275.3 52.7 271.4 54.6 268.5 57.1C261.2 63.6 264.1 74.8 274.2 78.6C284.8 82.6 295.4 81.6 305.8 77.4C307 76.9 308.2 76.3 309.5 75.8C309.6 75.8 310 75.6 310.6 75.2C310.6 81.4 310.7 89.6 310.5 96C310.5 96 309.5 97.1 308.6 97.6C292.6 107.4 260.7 108.4 245 92.7C234.5 82.2 231.7 69.4 235.2 55.5C238.8 41 249.2 32.9 263.2 29.3C277.4 25.6 291.5 26.2 305.2 32C308.8 33.5 310.4 34.9 310.4 34.9C310.4 34.9 310.2 50.8 310.2 57.2Z" fill="white"/>
<path d="M421.8 102.4C421.8 78.1 421.8 54.6 421.8 30.8C431.3 30.8 440.7 30.8 450.5 30.8C450.5 37 450.5 43.1 450.5 49.2C450.7 49.2 450.9 49.3 451.1 49.3C452.5 46 453.6 42.6 455.2 39.4C460 30.3 469 26.8 478.9 29.7C481.8 30.6 483.2 32.3 483.2 32.3C483.2 32.3 483.2 49.9 483.2 57.3C479.7 56.6 476.6 55.7 473.5 55.4C461 54.2 452.8 60.7 451.7 73.2C451 81.3 451.3 94.3 451.5 102.4C451.5 102.4 450.2 102.5 446.5 102.4C438.5 102.2 430.4 102.4 421.8 102.4Z" fill="white"/>
<path d="M138.6 47.4C138.6 65.4 138.6 82.5 138.6 99.7C138.6 100.5 138.5 101.3 138.4 102.4C128.6 102.4 119.1 102.4 109.2 102.4C109.2 84.3 109.2 66.3 109.2 47.7C118.9 51 128.4 51.5 138.6 47.4Z" fill="white"/>
<path d="M123.9 37.9C115.6 37.9 109 31.8 109.1 24.3C109.2 17 115.8 11.1 123.7 11C131.9 10.9 138.7 17.2 138.5 24.6C138.4 32 132 37.9 123.9 37.9Z" fill="white"/>
</svg>
