<svg width="96" height="27" viewBox="0 0 96 27" fill="none" xmlns="http://www.w3.org/2000/svg"><path d="M92.44 0H3.56A3.48 3.48 0 000 3.37v20.26C0 25.48 1.6 27 3.56 27h88.88A3.48 3.48 0 0096 23.62V3.38C96 1.52 94.4 0 92.44 0zm0 .54a2.92 2.92 0 013 2.83v20.26a2.92 2.92 0 01-3 2.83H3.56a2.92 2.92 0 01-3-2.84V3.38a2.92 2.92 0 013-2.83h88.88z" fill="#fff"/><path d="M34.34 6.93c0 .56-.17 1.01-.5 1.35a2 2 0 01-1.51.6c-.59 0-1.1-.2-1.5-.61-.42-.4-.62-.9-.62-1.5s.2-1.11.61-1.52c.42-.4.92-.6 1.51-.6.3 0 .57.05.84.17.26.1.48.26.64.45l-.36.35a1.38 1.38 0 00-1.12-.48 1.56 1.56 0 00-1.59 1.62 1.56 1.56 0 001.59 1.62c.46 0 .84-.15 1.14-.45.2-.2.31-.47.34-.82h-1.48v-.49h1.98l.03.3z" fill="#fff"/><path d="M34.35 6.93h-.14c0 .55-.16.98-.49 1.3-.37.39-.85.58-1.45.58a2 2 0 01-1.46-.59c-.4-.39-.6-.87-.6-1.46 0-.58.2-1.06.6-1.46a2 2 0 011.46-.58c.28 0 .55.05.81.16s.46.26.61.43l.06-.04-.05-.05-.36.36.05.05.05-.05c-.28-.33-.68-.5-1.17-.5a1.63 1.63 0 00-1.66 1.68c0 .5.17.9.5 1.22.32.31.71.47 1.16.47.47 0 .87-.16 1.19-.47.2-.21.33-.5.36-.86v-.08h-1.48V6.7h1.91v-.07l-.07.02.03.29h.14l-.03-.32-.01-.05H32.2v.62h1.55V7.1h-.06c-.03.33-.14.59-.33.77-.3.3-.65.43-1.1.43a1.5 1.5 0 01-1.06-.43c-.3-.28-.45-.65-.45-1.12 0-.46.15-.83.45-1.12.3-.28.65-.43 1.07-.43.46 0 .8.16 1.07.46l.04.06.46-.45-.04-.05c-.17-.2-.4-.36-.67-.47a2.2 2.2 0 00-.86-.18c-.6 0-1.13.21-1.55.63a2.1 2.1 0 00-.64 1.55c0 .62.21 1.14.64 1.56.42.42.94.63 1.55.63.63 0 1.15-.21 1.55-.62.35-.35.53-.82.53-1.4z" fill="#fff"/><path d="M37.5 5.2h-1.85v1.3h1.68v.48h-1.68v1.28h1.86v.5h-2.39V4.7h2.39v.5z" fill="#fff"/><path d="M37.45 5.21v-.07h-1.93v1.42h1.68v.35h-1.68v1.42h1.86v.37h-2.25V4.78h2.25v.43h.14v-.56h-2.53v4.18h2.53V8.2h-1.87V7.05h1.68v-.62h-1.68V5.28h1.87V5.2h-.07z" fill="#fff"/><path d="M39.64 8.76h-.53V5.2h-1.14v-.5h2.8v.5h-1.13v3.55z" fill="#fff"/><path d="M39.7 8.76V8.7h-.45V5.14H38.1v-.36h2.68v.36h-1.14v3.62h.13V5.28h1.14v-.63h-2.94v.63h1.14v3.55h.66v-.07h-.07z" fill="#fff"/><path d="M43.41 4.7h-.52v4.06h.52V4.7z" fill="#fff"/><path d="M42.82 8.76h.07V4.78h.39V8.7h-.46v.13h.6V4.65h-.66v4.18h.06v-.07z" fill="#fff"/><path d="M45.72 8.76h-.53V5.2h-1.14v-.5h2.8v.5h-1.13v3.55z" fill="#fff"/><path d="M45.66 8.76V8.7h-.46V5.14h-1.14v-.36h2.67v.36h-1.14v3.62h.13V5.28h1.15v-.63h-2.95v.63h1.14v3.55h.66v-.07h-.06z" fill="#fff"/><path d="M49.57 7.92c.3.3.67.46 1.1.46.45 0 .82-.15 1.12-.46.3-.3.45-.69.45-1.16s-.15-.86-.45-1.16c-.3-.3-.67-.46-1.11-.46-.44 0-.8.16-1.11.46-.3.3-.46.69-.46 1.16s.16.86.46 1.16zm2.6.34c-.4.41-.9.62-1.5.62-.59 0-1.09-.2-1.49-.62-.4-.4-.6-.9-.6-1.5s.2-1.1.6-1.5c.4-.41.9-.61 1.5-.61s1.1.2 1.5.61c.4.41.6.91.6 1.5 0 .6-.2 1.1-.6 1.5z" fill="#fff"/><path d="M49.5 7.93l-.04.04c.31.32.7.48 1.16.48.45 0 .84-.16 1.16-.48.31-.31.47-.72.47-1.2 0-.5-.16-.9-.47-1.22-.32-.31-.7-.47-1.16-.47-.46 0-.85.16-1.16.47-.32.32-.48.73-.48 1.21 0 .49.16.9.48 1.21l.05-.04.05-.05c-.3-.3-.44-.66-.44-1.12 0-.45.15-.82.44-1.11.29-.3.64-.44 1.06-.44a1.5 1.5 0 011.5 1.55c0 .46-.15.83-.44 1.12-.3.3-.64.43-1.06.43-.42 0-.77-.14-1.06-.43l-.05.05zm2.67.38l-.1-.1c-.4.4-.87.6-1.45.6s-1.06-.2-1.45-.6a2 2 0 01-.59-1.45 2 2 0 01.59-1.45c.39-.4.87-.6 1.45-.6s1.05.2 1.45.6c.39.4.58.88.58 1.45a2 2 0 01-.58 1.46l.1.1c.4-.43.62-.95.62-1.56 0-.6-.21-1.12-.63-1.54a2.09 2.09 0 00-1.54-.64c-.62 0-1.14.21-1.55.64-.41.42-.62.94-.62 1.54 0 .61.2 1.13.62 1.55.41.42.93.64 1.55.64.61 0 1.13-.22 1.55-.64z" fill="#fff"/><path d="M53.5 8.76V4.7h.63l2 3.15h.01l-.02-.78V4.71h.53v4.05h-.55l-2.08-3.3H54l.02.78v2.52h-.53z" fill="#fff"/><path d="M53.56 8.76h.07V4.78h.53l2 3.15h.12l-.02-.85v-2.3h.39V8.7h-.45l-2.07-3.3h-.14l.03.84V8.7h-.46v.13h.6V6.24l-.03-.78h-.07v.07h.03v-.07l-.06.04 2.1 3.33h.65V4.65h-.66v2.43l.02.79h.07V7.8h-.02v.06l.06-.03-2.01-3.18h-.75v4.18h.07v-.07z" fill="#fff"/><path d="M74.85 20.24h1.27v-8.43h-1.27v8.43zm11.46-5.4l-1.46 3.66h-.04l-1.52-3.65h-1.37l2.27 5.1-1.3 2.85h1.33l3.5-7.95h-1.41zM79.1 19.3c-.42 0-1-.21-1-.72 0-.65.72-.9 1.35-.9.55 0 .82.12 1.16.28-.1.78-.78 1.34-1.51 1.34zm.15-4.63c-.92 0-1.88.4-2.27 1.3l1.13.46c.24-.47.69-.62 1.16-.62.66 0 1.33.4 1.34 1.09v.08a2.83 2.83 0 00-1.33-.32c-1.22 0-2.45.66-2.45 1.9 0 1.13 1 1.85 2.11 1.85a1.8 1.8 0 001.62-.82h.05v.65h1.22V17c0-1.5-1.12-2.34-2.58-2.34zm-7.86 1.21h-1.8v-2.89h1.8c.95 0 1.49.78 1.49 1.45 0 .65-.54 1.44-1.49 1.44zm-.03-4.06H68.3v8.43h1.27v-3.2h1.78c1.4 0 2.8-1 2.8-2.61 0-1.61-1.4-2.62-2.8-2.62zm-16.62 7.48c-.88 0-1.61-.73-1.61-1.73 0-1.01.73-1.75 1.61-1.75.87 0 1.55.74 1.55 1.75 0 1-.68 1.73-1.55 1.73zm1.46-3.97h-.04a2.02 2.02 0 00-1.53-.64 2.87 2.87 0 00-2.78 2.88 2.86 2.86 0 002.78 2.86c.7 0 1.24-.3 1.53-.65h.04v.4c0 1.1-.6 1.7-1.55 1.7a1.6 1.6 0 01-1.46-1.03l-1.1.46c.31.76 1.16 1.7 2.56 1.7 1.5 0 2.76-.87 2.76-3v-5.15h-1.2v.47zm2.09 4.92h1.27v-8.43H58.3v8.43zm3.15-2.78a1.58 1.58 0 011.51-1.67c.5 0 .94.25 1.08.6l-2.6 1.07zm3.95-.96c-.24-.64-.98-1.82-2.48-1.82s-2.73 1.16-2.73 2.87a2.82 2.82 0 002.87 2.87c1.33 0 2.1-.8 2.42-1.27l-.99-.66c-.33.48-.78.8-1.43.8-.65 0-1.1-.3-1.4-.87l3.87-1.59-.13-.33zm-30.88-.94v1.22h2.95a2.53 2.53 0 01-.67 1.53c-.43.42-1.1.89-2.28.89a3.21 3.21 0 01-3.22-3.24c0-1.8 1.41-3.24 3.22-3.24.98 0 1.7.38 2.22.87l.87-.86a4.54 4.54 0 00-7.65 3.23 4.54 4.54 0 004.56 4.46c1.34 0 2.35-.44 3.14-1.25a4 4 0 001.07-2.85c0-.28-.02-.55-.07-.76h-4.14zm7.55 3.73c-.87 0-1.63-.72-1.63-1.74 0-1.04.76-1.74 1.63-1.74.88 0 1.64.7 1.64 1.74 0 1.02-.76 1.74-1.64 1.74zm0-4.61c-1.6 0-2.9 1.2-2.9 2.87 0 1.65 1.3 2.87 2.9 2.87 1.6 0 2.91-1.22 2.91-2.87 0-1.67-1.3-2.87-2.9-2.87zm6.35 4.6c-.88 0-1.63-.71-1.63-1.73 0-1.04.75-1.74 1.63-1.74.88 0 1.64.7 1.64 1.74 0 1.02-.76 1.74-1.64 1.74zm0-4.6c-1.6 0-2.9 1.2-2.9 2.87 0 1.65 1.3 2.87 2.9 2.87 1.6 0 2.91-1.22 2.91-2.87 0-1.67-1.3-2.87-2.9-2.87z" fill="#fff"/><path fill-rule="evenodd" clip-rule="evenodd" d="M9.22 21.85l-.05-.05c-.2-.2-.31-.53-.31-.95V6.12c0-.45.13-.79.36-1l8.45 8.37-8.45 8.36z" fill="#fff"/><path fill-rule="evenodd" clip-rule="evenodd" d="M20.47 16.28l-2.81-2.8 2.81-2.78 3.4 1.91c.43.25.67.56.71.88-.04.32-.28.63-.71.87l-3.4 1.92z" fill="#fff"/><path fill-rule="evenodd" clip-rule="evenodd" d="M9.76 22.07a.88.88 0 01-.6-.22l8.45-8.36 2.81 2.79-9.9 5.56c-.27.16-.52.23-.76.23zm-.6-.12a.88.88 0 01-.04-.05l.04.05z" fill="#fff"/><path fill-rule="evenodd" clip-rule="evenodd" d="M17.56 13.49L9.12 5.12a.88.88 0 01.6-.22c.23 0 .49.08.76.23l9.9 5.57-2.82 2.79z" fill="#fff"/><path fill-rule="evenodd" clip-rule="evenodd" d="M9.77 22.17a.88.88 0 01-.6-.22l-.05-.05.05-.05c.16.14.36.22.6.22.23 0 .49-.07.76-.23l9.9-5.56.06.06-.07.03-9.89 5.57a1.64 1.64 0 01-.76.23z" fill="#fff"/><path fill-rule="evenodd" clip-rule="evenodd" d="M9.17 21.9c-.2-.2-.31-.53-.31-.95v-.1c0 .42.11.75.31.95l.05.05-.05.05z" fill="#fff"/><path fill-rule="evenodd" clip-rule="evenodd" d="M20.44 16.34l-.07-.07 3.4-1.9c.43-.25.67-.56.71-.88 0 .11-.02.23-.07.35-.11.23-.32.44-.64.62l-3.33 1.88z" fill="#fff"/><path fill-rule="evenodd" clip-rule="evenodd" d="M24.48 13.49c-.04-.32-.28-.64-.71-.88l-3.4-1.91.07-.06 3.33 1.87c.48.27.71.62.71.98z" fill="#fff"/><path d="M8.86 5.9c.04-.7.42-1.1.96-1.1a.88.88 0 00-.6.22 1.28 1.28 0 00-.36.87z" fill="#fff"/><path fill-rule="evenodd" clip-rule="evenodd" d="M8.86 6.14v-.1-.11c.02-.37.13-.65.31-.84l.05.05c-.23.2-.36.55-.36 1z" fill="#fff"/><path fill-rule="evenodd" clip-rule="evenodd" d="M20.42 10.7l-9.89-5.57a1.58 1.58 0 00-.76-.23.88.88 0 00-.6.22l-.05-.05a.92.92 0 01.05-.05.88.88 0 01.6-.21c.23 0 .49.07.76.22l9.96 5.6-.07.07z" fill="#fff"/></svg>