<svg id="Layer_1" data-name="Layer 1" xmlns="http://www.w3.org/2000/svg" viewBox="0 0 615.09 388.34"><defs><style>.cls-1{fill:#fff;}</style></defs><g id="q9ucFU"><path class="cls-1" d="M90,187.75c4.94,0,9.76-.34,14.5.1,4.44.41,6.93-1.15,7.88-5.4,1-4.55,3.5-6.4,8.45-6.06,3.45.23,5.3,1.26,6,4.45,1.19,5.71,4.52,7.35,10.31,7.06,10.62-.54,21.28-.16,32.26-.16l.65-6.08c2.67,2,2.38,7.18,7.51,6.22a38.34,38.34,0,0,1,11.47,0c4.56.54,6.71-1.6,8.34-5.65.26,1.61.52,3.23.84,5.19h99.41V169.07c5.68,1.57,3.34,5.57,3.66,8.27.38,3.24.09,6.57.09,10.41h21.41c8.67,0,17.34.11,26-.1,1.77,0,3.52-1.3,5.13-2.72,11.77,4.53,24.4,2.29,36.8,2.86,4.74.22,4.65-3.7,5.63-6.32,1.35-3.58,3.07-5.08,7.2-5.1,4.35,0,6.56,1.48,7.38,5.43,1,5,4,6.29,8.93,6.07,9.82-.43,19.66-.12,29.49-.12H455c.19-3.23.35-5.81.5-8.44.51.15,1,.16,1.05.32,2.73,7.66,8.46,8.85,15.79,8.25s14.88-.13,22.58-.13V118.49H462.05l-.59,5.67c-2.18-7.35-8-6-13.21-6H423.6c-.22,2.24-.4,4.11-.59,6-2.37-7.93-8.72-5.91-14.1-5.94-12,0-24-.24-36,.12-6.24.18-12.45,1.42-18.35,2.14-2.12-.76-4.24-2.1-6.4-2.18-7.66-.27-15.34-.22-23,0-1.66,0-3.29,1.24-4.93,1.91-4.86-.64-10-1.89-15.22-1.91-36.17-.18-72.33,0-108.5-.22-3.85,0-5.67,1.29-6.9,4.72C188.1,127,186.13,131,184,136c-2.42-5.42-4.38-10.1-6.63-14.64-.63-1.29-2.08-3.06-3.19-3.09-11.46-.22-22.92-.13-34.48-.13l-.36,5.88c-2.21-7.84-8.52-5.84-13.91-5.9-5.83-.06-11.67.15-17.49-.07-2.8-.11-4.14.92-5.2,3.43-3.85,9.19-7.93,18.28-12.62,27.26V39.55H514.46V203.72c-11.78,1.89-24.1-2.14-34.29,2.84-3.06-1-5.17-2.24-7.32-2.29-9-.23-18-.32-27,0-4.73.16-9.43,1.26-14,1.92-1.4-.59-3.07-1.9-4.74-1.92q-25.5-.22-51,0c-1.54,0-3.07,1.33-5.71,2.55-11.1-4-51-4.24-52.81-.58-5.7-.71-11.08-1.83-16.47-2-12.16-.3-24.34.13-36.5-.21-4.92-.14-8.63,1-11.51,5.08a52.37,52.37,0,0,1-4.78,5.17c-.55-.32-1.14-.44-1.32-.78-4.87-8.88-12.69-9.88-21.93-9.54-16.62.62-33.28.18-50.3.18v69.56h7c16.33,0,32.67-.15,49,.1,4.7.07,8.32-.84,11.19-4.8,1.52-2.11,3.78-3.68,5.75-5.53.19.07.64.09.75.29,5.12,9,13,11,22.75,10.11,8.07-.73,16.26-.15,24.86-.15V257.93l20.5-2.05V273.3h32.2c0-4.87-.12-9.65.08-14.42.05-1.13,1.18-2.21,1.81-3.32.62,1.16,1.72,2.29,1.78,3.46.21,4.63.08,9.27.08,14.38,2.14.11,3.9.28,5.66.28,29.84,0,59.67.16,89.5-.08,6-.05,12-1.54,18.23-2.39.79.54,2.21,2.35,3.66,2.37q17.24.15,34.48-.35c3.27-.1,6.5-1.19,10.21-1.92v77.48H90Z"/><path class="cls-1" d="M247.87,230.26c4.48-4.81,8.43-9.32,12.71-13.51a9,9,0,0,1,5.44-2.58c12.83-.2,25.66-.27,38.49,0s19.12,8.91,16.3,21.16c-1.56,6.77-6.2,10.25-12.64,11-7.24.85-14.56.92-22.46,1.36v16.13c-7.73,0-14.86.11-22-.11-1.21,0-2.58-1.33-3.54-2.36-4.07-4.39-8-8.91-12.49-13.93-4.16,4.51-8,9.08-12.27,13.11a12,12,0,0,1-7.16,3.19c-14.13.3-28.27.14-42.79.14V214.06h9.38c10.67,0,21.34.22,32-.1,4.55-.13,7.86.92,10.68,4.68C240.5,222.61,244.12,226.1,247.87,230.26Zm-50.59,13.16v9.89c9.27,0,18.23.06,27.18-.07a5.42,5.42,0,0,0,3.42-1.51c4.05-4.15,7.94-8.46,12.05-12.89-4-4.43-7.7-8.65-11.52-12.81a4.14,4.14,0,0,0-2.38-1.55c-9.58-.1-19.16-.07-28.75-.07v9h25.65v10Zm75.91,15.25V220l-17.72,19ZM285.85,237c5.88,0,11.18.25,16.44-.09,3.65-.24,6.16-2.32,6.18-6.44,0-3.36-1.75-5.66-4.88-5.86-5.87-.36-11.78-.1-17.74-.1Z"/><path class="cls-1" d="M484.19,178c-5.21,0-10,.29-14.8-.17-1.49-.14-3.16-2.09-4.1-3.61-6.56-10.58-13-21.27-20.3-31.79V178c-8.06,0-15.51.2-22.92-.2-1.22-.07-3-2.58-3.34-4.22-1.3-5.59-4.49-7.38-10-6.73a70.34,70.34,0,0,1-13,0c-3.58-.26-5.73.85-6.42,4.46-1.06,5.5-4.23,7.62-9.89,6.79-4.26-.62-8.67-.18-12.93-.77a23.67,23.67,0,0,1-8.42-2.81c-8.05-4.68-11.45-17.59-8.35-30.36,2.34-9.62,9.12-15.33,19.27-15.86,5.1-.27,10.23-.05,15.65-.05v10.5c-3.79,0-7.55-.05-11.29,0-7.61.14-11.31,3.49-12,11.13a35.21,35.21,0,0,0,.25,8.46c1.11,7.08,9.12,11.56,15.59,8.69,1.1-.49,1.81-2.22,2.37-3.51,4.66-10.68,9.34-21.34,13.78-32.1,1.06-2.57,2.38-3.4,5.14-3.43,14.29-.18,14.28-.26,19.89,12.93q6.56,15.38,13.16,30.74a12.52,12.52,0,0,0,1.38,1.61V128.11c6,0,11.33-.23,16.59.15,1.35.1,2.9,1.91,3.77,3.31,6,9.73,11.91,19.55,18.82,29.16v-32.3h12.11Zm-72.55-21.91-8.13-19.44-8,19.44Z"/><path class="cls-1" d="M149.53,172.75v-44.6c6.15,0,12.08-.17,18,.16,1.08.06,2.37,2,3,3.39,4.56,9.6,9,19.27,13.94,30,1.49-3.33,2.61-5.78,3.67-8.26,3.13-7.34,6.13-14.75,9.42-22,.62-1.37,2.29-3.11,3.57-3.18,5.62-.35,11.27-.15,17.26-.15v49.5H206.77V141.79l-.9-.29a20.73,20.73,0,0,0-1.53,2.44c-4.57,10.17-9.25,20.3-13.56,30.58-1.31,3.12-3.2,3.74-6.13,3.52s-6,.66-7.63-3.56c-3.8-9.58-8.26-18.9-12.47-28.32a13.25,13.25,0,0,0-3.05-4.62v36.39c-8,0-15.64.27-23.19-.25-1.33-.09-3-3.3-3.54-5.34-1.2-4.55-3.72-6.2-8.31-5.57a30.89,30.89,0,0,1-8,0c-7.32-1-13.08.21-14.72,8.81-.18,1-2,2.19-3.13,2.3-3.25.31-6.55.11-10.37.11.63-1.82,1-3.05,1.47-4.22,6-14.07,12.11-28.11,18-42.23,1-2.52,2.35-3.48,5.13-3.52,14.08-.24,14.07-.32,19.6,12.56q6.94,16.22,13.94,32.42ZM128,156.22c-2.78-6.72-5.22-12.64-8.11-19.62L112,156.22Z"/><path class="cls-1" d="M327.2,263.61V214.47c12.36,0,24.47-.32,36.55.16a11.15,11.15,0,0,1,10.69,8.45c1.48,5.62.56,10.92-4,15.11-.84.79-1.75,1.5-3,2.53,9.87,5.36,6.28,14.49,7.16,22.86H362.4c0-3.57.08-6.87,0-10.16-.12-4.2-2.06-7.19-6.47-7.42-5.42-.28-10.87-.07-17-.07v17.68Zm12.17-39.22v10.92c5.91,0,11.39.1,16.86,0,3.57-.09,5.57-2.15,5.51-5.73s-2.37-5-5.58-5.11C350.68,224.3,345.2,224.39,339.37,224.39Z"/><path class="cls-1" d="M316.23,155c10.33,5.41,6.12,14.56,7.27,22.74H311.27c0-3.26.07-6.51,0-9.75-.14-4.88-2.35-7.89-7.58-7.93s-10.2,0-15.92,0V177.7H276.13V128.49c12.3,0,24.39-.33,36.45.16a11.12,11.12,0,0,1,10.65,8.5c1.43,5.44.61,10.6-3.59,14.79C318.71,152.87,317.67,153.69,316.23,155Zm-28.17-5.67c6.09,0,11.87.16,17.64-.07,3.05-.12,5.32-2.14,4.62-5.22-.45-2-2.51-4.91-4.08-5.07-6-.59-12.11-.24-18.18-.24Z"/><path class="cls-1" d="M239.79,157.47v9.94H267.3v10.28H227.82v-49.3h39.36v9.81H239.92v9h26.53v10.29Z"/><path class="cls-1" d="M381.8,214.31h39.47v9.9H394v9.06h26.57v9.91H394v10H421.2v10.31H381.8Z"/><path class="cls-1" d="M428.77,263.09v-9.86c6.81,0,13.55.07,20.29,0,3.68,0,8.85,1,8.93-4.43.09-5.72-5.27-4.09-8.82-4.48-3.3-.35-6.64-.43-9.91-1-8.14-1.4-12-6.26-11.87-14.62.11-7.62,5-13.75,12.58-14.23,9.24-.57,18.55-.13,28.15-.13v10.22H449.39c-1.67,0-3.62-.48-4.92.22-1.8,1-3.11,2.84-4.63,4.33,1.61,1.38,3.06,3.67,4.85,4,4.55.78,9.3.4,13.9,1,8.22,1.06,11.75,4.94,12.07,12.59.38,9.14-3.16,15.42-11.18,16.21C449.48,263.84,439.32,263.09,428.77,263.09Z"/><path class="cls-1" d="M475.73,263.27v-10c6.48,0,12.91,0,19.33,0,1.83,0,4,.5,5.4-.29,1.7-.95,3.58-2.91,3.83-4.66.15-1.08-2.44-3.42-4.06-3.71-4.39-.8-9-.56-13.39-1.16-8.76-1.18-13.24-6.43-13-14.78.24-8.12,5.83-14,14.27-14.38,7.64-.34,15.31-.15,23-.17,1,0,1.95.13,3.28.22v10.24h-7.6c-4.83,0-9.66,0-14.48,0-2.86,0-5.56.77-5.63,4.26s2.5,4.29,5.42,4.46c4.65.27,9.33.3,13.93.92,7,.95,10.37,4.55,11.3,11.3,1,7.31-2,13.71-7.8,16.35a11.51,11.51,0,0,1-4.26,1.35C495.48,263.32,485.71,263.27,475.73,263.27Z"/><path class="cls-1" d="M331.12,128.33h11.47v49.26H331.12Z"/></g></svg>