<svg id="Layer_1" data-name="Layer 1" xmlns="http://www.w3.org/2000/svg" viewBox="0 0 542.12 586.42"><defs><style>.cls-1{fill:#fff;}</style></defs><g id="uLuELj"><path class="cls-1" d="M58.91,278.5c2.65-1.58,4.88-3.11,7.29-4.28a26.64,26.64,0,0,1,17-2.31,25.94,25.94,0,0,1,14,7.52,36.76,36.76,0,0,1,7.44,12.15c2.58,6.52,2.2,13.25,1.42,19.81-.81,6.78-4.57,12.45-9.45,17.32a25.12,25.12,0,0,1-13.06,7.21c-7.06,1.34-14.14,1.1-20.43-3.24-.66-.46-1.4-.81-2-1.3a10.15,10.15,0,0,0-2.37-1.6c0,.94,0,1.87,0,2.8,0,2.27-.29,2.58-2.49,2.57-3.83,0-7.67-.08-11.5,0-1.47,0-1.85-.52-1.85-1.89q0-41.06,0-82.1c0-1.42.4-1.89,1.84-1.86,4,.09,7.93.07,11.89,0,1.58,0,2.11.6,2.1,2.17-.07,8.44-.06,16.88-.07,25.32A14.24,14.24,0,0,0,58.91,278.5ZM58,304.75A17.28,17.28,0,0,0,64.43,319c3.47,3,7.59,3.47,12,3a14.53,14.53,0,0,0,9.14-4.48c6-6.26,6.54-13.62,3.88-21.43a13.87,13.87,0,0,0-6.17-7.37,17,17,0,0,0-12-1.92,15.72,15.72,0,0,0-6.53,2.66C59.83,293.1,57.85,298.32,58,304.75Z"/><path class="cls-1" d="M401.2,279.69c0-1.84.08-3.1,0-4.34-.12-1.45.51-1.89,1.88-1.87,4.1,0,8.19.07,12.28,0,1.64,0,2.05.62,2,2.15-.08,4.67,0,9.34,0,14V333c0,2.32-.35,2.71-2.6,2.71-3.7,0-7.41-.09-11.11,0-1.84,0-2.58-.71-2.45-2.51.07-1,0-2,0-3.4-1.62,1.18-2.93,2.2-4.3,3.12a24.15,24.15,0,0,1-11.73,4.06,26.65,26.65,0,0,1-16.26-3.52A34,34,0,0,1,353,300.67c1.11-10.89,6-19.83,15.55-25.57A25.25,25.25,0,0,1,386.19,272C391.7,273,396.51,275.55,401.2,279.69Zm-15,6.89c-7.25-.21-11.83,2.56-14.71,8.24a19,19,0,0,0-1.85,13.58c1,4.36,2.86,8.08,6.51,10.62,5.44,3.77,11.18,4.05,17.18,1.1a13.74,13.74,0,0,0,6.79-7,24.52,24.52,0,0,0,1.67-9.1,19,19,0,0,0-1.74-8.51C397,289.68,392.12,286.38,386.16,286.58Z"/><path class="cls-1" d="M161.13,279c0-1.32,0-2.65,0-4,0-1,.23-1.54,1.37-1.53q6.52.06,13,0c1.71,0,1.53,1.12,1.53,2.22q0,19,0,38v19.38c0,2.2-.49,2.58-2.74,2.53-3.71-.07-7.41-.1-11.11,0-1.64,0-2.42-.38-2.14-2.17a21.8,21.8,0,0,0,0-3.18,6.68,6.68,0,0,0-1.84.72c-6.39,5.47-13.92,7-21.94,5.76-6.5-1-11.78-4.5-16.15-9.44-3.86-4.35-6.82-9.18-7.53-15-.55-4.52-1.21-9.21-.61-13.65,1.36-10.06,6.33-18.29,15.17-23.58a25.06,25.06,0,0,1,16.88-3.19,28.17,28.17,0,0,1,14.11,6.39c.45.38,1,.7,1.44,1.05Zm.11,25.55.49-.06a75.52,75.52,0,0,0-1.66-8.13,13.82,13.82,0,0,0-6.35-7.65,17.73,17.73,0,0,0-11.83-2,12,12,0,0,0-5.89,2.31c-6.44,5.49-8.8,12.37-6.41,20.74,2.33,8.14,9.2,13.27,18,12.1a14.87,14.87,0,0,0,9.39-4.78A15.58,15.58,0,0,0,161.24,304.54Z"/><path class="cls-1" d="M291.31,292.43q0-20.54,0-41.06c0-1.41.28-2.09,1.91-2.05q5.85.17,11.7,0c1.83-.05,2.26.66,2.24,2.38-.12,8.5-.12,17-.14,25.51a1.6,1.6,0,0,0,.46,1.1c.16.13.71-.09,1-.27,2.17-1.35,4.17-3.16,6.51-4,4.85-1.73,9.72-3.33,15.14-1.59a29.35,29.35,0,0,1,9.54,4.63,13.43,13.43,0,0,1,4.92,7.23c.84,3.31.84,6.83,1.21,10.25a38.06,38.06,0,0,1,.44,4c0,11.45,0,22.9,0,34.35,0,2.56-.35,2.76-2.92,2.72-3.51-.07-7,0-10.54.13-1.69.06-2.37-.4-2.35-2.27.07-10.36.15-20.72-.08-31.08a44.3,44.3,0,0,0-1.69-10.64c-.9-3.26-4.18-5.11-7.6-5.18-2.93-.07-5.88.07-8.09,2.17-3.09,2.93-5.44,6.42-5.51,10.9-.17,10.93-.26,21.86-.36,32.8,0,3-.07,3.15-3.05,3.17-3.7,0-7.41,0-11.11,0-1.45,0-1.67-.76-1.66-1.95,0-7.61,0-15.22,0-22.83V292.43Z"/><path class="cls-1" d="M220.62,303.84c-.61-6.88,2-13.47,6.69-19.3a31.41,31.41,0,0,1,15.23-10.71c6.29-1.95,12.67-2.79,19.36-1.39,5.36,1.12,10.42,2.69,14.8,5.91a47.36,47.36,0,0,1,6.09,5.85c1.16,1.22.79,2.49-.68,3.29-3.08,1.69-6.18,3.34-9.21,5.11a2.45,2.45,0,0,1-3.35-.21,26.23,26.23,0,0,0-5.9-4,20.48,20.48,0,0,0-12.66-1.3,19.48,19.48,0,0,0-9.87,5.35,15,15,0,0,0-4.4,9.05c-.48,4.12-.53,8.29,1.75,12.08a17,17,0,0,0,10.12,7.67,20.64,20.64,0,0,0,9.37.89,21.42,21.42,0,0,0,11.54-5.24c1.43-1.31,2.46-1.21,3.83-.23,3,2.13,6,4.25,9,6.31,1,.69,1.29,1.43.48,2.35-4.52,5.21-9.94,9.15-16.75,10.61a49.59,49.59,0,0,1-19,.39,31.55,31.55,0,0,1-13.79-5.85,33.67,33.67,0,0,1-10.85-14.3C220.82,312.37,220.64,308.54,220.62,303.84Z"/><path class="cls-1" d="M474.79,273.5v-4.85c0-5.3.06-10.61,0-15.92,0-1.45.62-2.06,1.84-2.08,4-.05,7.93-.06,11.89,0,1.43,0,2.32.7,2.28,2.53-.13,6.64,0,13.29,0,20.22h8.45c0,4.49,0,8.69-.06,12.89,0,.35-.8,1-1.26,1a34.49,34.49,0,0,1-5,0c-1.71-.14-2.19.53-2.18,2.19.05,14.52,0,29,0,43.55,0,2.46-.28,2.69-2.76,2.67-3.95,0-7.9,0-11.86,0a1.79,1.79,0,0,1-1.25-1,5.45,5.45,0,0,1-.05-1.9q0-21.57,0-43.16c0-2.42-.19-2.6-2.61-2.63-5.58-.07-5.58-.07-5.6-5.73,0-2,.06-4,0-6-.05-1.34.52-1.86,1.8-1.84C470.39,273.52,472.43,273.5,474.79,273.5Z"/><path class="cls-1" d="M442.9,279.29c2.86-4.41,6.79-7.2,12-7.27,2.28,0,4.58,1,6.95,1.51-1.48,4.38-2.76,8.21-4.09,12-.4,1.18-1,1.73-2.52,1.36-5.86-1.4-7.65.76-9,5.22a43.79,43.79,0,0,0-2,13.73c.09,9.34,0,18.68.07,28,0,1.67-.53,2.26-2.21,2.22-3.77-.1-7.55-.08-11.32,0-1.72,0-2.39-.76-2.39-2.44q0-29,0-57.93c0-1.7.56-2.26,2.2-2.22,3.26.08,6.53.06,9.79,0,1.47,0,2.11.5,1.95,2a34.81,34.81,0,0,0,0,3.54Z"/><path class="cls-1" d="M201.36,273.49v6.42a11.53,11.53,0,0,0,1.62-1.52,13.77,13.77,0,0,1,10.85-6.4,16.51,16.51,0,0,1,5.93,1.11,2.34,2.34,0,0,1,1,2.09c-1.14,3.73-2.43,7.43-3.83,11.07-.16.42-1.38.74-2,.62-2.58-.48-5.22-1-7.08,1.35a12.09,12.09,0,0,0-2.6,5.13,78.37,78.37,0,0,0-1.29,12.13c-.19,9.08-.09,18.16-.07,27.25,0,2.23-.4,3.55-3.28,3.38-3.31-.19-6.65-.14-10,0-1.89.07-2.58-.5-2.58-2.47q.09-29.07,0-58.15c0-1.45.33-2.07,1.91-2C193.64,273.56,197.34,273.49,201.36,273.49Z"/></g></svg>