<svg id="Layer_1" data-name="Layer 1" xmlns="http://www.w3.org/2000/svg" viewBox="0 0 615.09 388.34"><defs><style>.cls-1{fill:#fff;}</style></defs><path class="cls-1" d="M51.84,173.37a14.28,14.28,0,0,0,1-2.63c2.74-14.06,11.43-22.47,25.07-25.9,14.71-3.69,29.35-2.7,43.71,1.88,1.63.52,3.74,2.8,3.81,4.35.38,8.06.18,16.16.18,24.72-6.11-1.07-11.63-2.19-17.2-3-3.43-.47-7-.93-10.37-.39-2.09.33-5.24,2.33-5.47,3.93-.29,2.08,1.43,4.87,3,6.67,1.46,1.63,3.94,2.36,6,3.44,4.1,2.17,8.17,4.41,12.34,6.45,23.76,11.65,18.15,50.16,1.73,60.17-9.38,5.71-19.67,7.23-30.18,6.61-9.06-.53-18.08-2.28-27-4-1.78-.35-4.3-3.05-4.4-4.79-.47-8.07-.21-16.19-.21-25.07,5,1,9.55,2,14.19,2.68s9.63,1.68,14.29,1.14a10.88,10.88,0,0,0,7.34-5.3c1.71-3.51-1.82-5.45-4.68-7l-15.36-8.2c-9.17-4.91-15.13-12.2-16.92-22.61a10.32,10.32,0,0,0-.95-2.23Z"/><path class="cls-1" d="M321.31,89.77c1.08.36,2.14.77,3.23,1.09,10,2.86,16,11.9,14.78,22.41a20,20,0,0,1-18.79,17.41c-10.27.47-19.24-6.21-21.22-15.8a20.24,20.24,0,0,1,12.95-23.51c1.37-.51,2.71-1.07,4.06-1.6Z"/><path class="cls-1" d="M397.37,258.59v39.92h-8.11c-9.48,0-19-.11-28.43.06-3.19.06-4.68-.88-4.4-4.19.14-1.64,0-3.31,0-5V144.84c10.39,0,20.32-.42,30.18.25,3.07.22,5.94,3.4,9.69,5.71,6-4.24,13.62-8,22.65-8.15,16.92-.26,27.08,5.8,32.05,21.93,7.13,23.17,7.35,46.84-.16,70-5.86,18-19.11,26.17-38.24,25.28C407.67,259.6,402.75,259,397.37,258.59Zm-.22-29c9.32,3.9,14.32,1.32,16.16-8.08.58-2.92,1.42-5.88,1.39-8.82-.09-11.24-.31-22.49-.87-33.72-.18-3.79-2.49-6.5-6.84-6.38-5.92.16-9.76,2.71-9.79,6.95C397.08,196.27,397.15,213,397.15,229.59Z"/><path class="cls-1" d="M563.25,214.55H508.67c-2.12,7.25.11,12.58,7,13.36,7.94.9,16.13.16,24.17-.38,5.4-.36,10.74-1.61,16.33-2.5,0,8.77.31,17.05-.22,25.28-.13,1.9-2.79,4.68-4.8,5.26-17.71,5.07-35.66,6.2-53.59,1.28-12.51-3.44-21.41-11.45-25.64-23.68-7.46-21.55-7.46-43.34.64-64.69,5.7-15,17.72-22.83,33.34-24.85a104,104,0,0,1,19.33-.3c17.74,1,31.27,14.92,34.06,32.37C561.26,188.24,561.91,201,563.25,214.55ZM525,192.16c-.73-6.32-1.42-12.19-2.1-18.07-.42-3.7-1.56-7-5.94-7.27a7.1,7.1,0,0,0-7.88,6.12c-1.13,6.24-1.56,12.61-2.32,19.22Z"/><path class="cls-1" d="M189.67,144.54h21.6c-1.75,8.66-3.42,16.88-5.18,25.59H190.38c-.21,2-.52,3.62-.52,5.2,0,14.43-.09,28.86,0,43.28.06,9.61,2.26,11.4,11.75,10.18,2.93-.38,5.89-.62,9.57-1,0,9.21.07,17.94-.11,26.65,0,.84-1.51,2.2-2.48,2.37-11.94,2.16-23.86,4.46-36.1,2.31-14-2.48-22.43-11.45-22.79-25.88-.47-18.73-.27-37.48-.35-56.21,0-2,0-3.91,0-6.43H134.93V144.86H149.1c1.5-7.18,3.07-13.91,4.24-20.7.66-3.84,2.63-5.66,6.36-6.48,9.86-2.15,19.66-4.57,30-7Z"/><path class="cls-1" d="M220.64,257.34V144.68c9.86,0,19.46-.21,29,.2,1.71.07,3.51,2.58,4.92,4.26,1.26,1.49,2,3.38,3.29,5.57,1.09-1.33,2-2.38,2.84-3.46,6.46-8.11,14-10.71,23.8-7.63,1.8.56,4.27,2.81,4.33,4.37.4,9.89.21,19.81.21,29.76-6.36-.3-12.14-1-17.88-.72-9,.47-10.57,2.35-10.6,11.35-.08,21.05,0,42.1,0,63.16v5.8Z"/><path class="cls-1" d="M299.21,145h39.52V257.49H299.21Z"/></svg>