<svg id="Layer_1" data-name="Layer 1" xmlns="http://www.w3.org/2000/svg" viewBox="0 0 615.09 388.34"><defs><style>.cls-1{fill:#fff;}</style></defs><path class="cls-1" d="M173.7,210c.09-7-1.45-12.17-9.45-13.52,0-11.18.05-22.08,0-33-.12-26.06-14.55-46-39.46-53.39-40.36-12-78.84,17-75.95,55.4.76,10.17.11,20.45.11,31.12-8.5,1.09-9.57,6.8-9.49,13.94.25,22.3.07,44.6.1,66.9,0,8.92,2.39,11.35,11.35,11.36q55.64.06,111.28,0c9.1,0,11.38-2.28,11.4-11.25C173.62,255,173.41,232.49,173.7,210Zm-63.57,33.89v16.79a5,5,0,0,1-9.94,0V243.86a13.06,13.06,0,1,1,9.94,0Zm36.2-47.07H67.25c0-14.15-1.33-28.1.32-41.69,2.32-19.12,22.15-31.54,44.14-29.53,19.88,1.82,34.44,17,34.6,36.29C146.41,173.39,146.33,184.91,146.33,196.79Z"/><path class="cls-1" d="M246.45,200.57a9.94,9.94,0,0,0-.53-3.33,6.55,6.55,0,0,0-2.07-2.75,19.1,19.1,0,0,0-4.22-2.47,67.35,67.35,0,0,0-7-2.58A85.52,85.52,0,0,1,223.5,186a34.35,34.35,0,0,1-7.53-4.59,20.64,20.64,0,0,1-5.1-6.1A16.74,16.74,0,0,1,209,167.2a17.18,17.18,0,0,1,1.92-8.09,18.36,18.36,0,0,1,5.39-6.24,26.81,26.81,0,0,1,8.26-4,36.71,36.71,0,0,1,10.52-1.43,33.06,33.06,0,0,1,10.68,1.63A24.5,24.5,0,0,1,254,153.6a20.14,20.14,0,0,1,5.24,6.92,20.7,20.7,0,0,1,1.85,8.77H246.5a11.74,11.74,0,0,0-.71-4.13,8.47,8.47,0,0,0-2.16-3.26,10.07,10.07,0,0,0-3.64-2.11,15.89,15.89,0,0,0-5.15-.75,17.53,17.53,0,0,0-5,.63,10,10,0,0,0-3.49,1.75,7.27,7.27,0,0,0-2.09,2.62,7.49,7.49,0,0,0-.71,3.21q0,3.5,3.57,5.85a40,40,0,0,0,10.47,4.39,69.33,69.33,0,0,1,10.18,4,30.2,30.2,0,0,1,7.33,5,18.86,18.86,0,0,1,4.44,6.22,19.24,19.24,0,0,1,1.51,7.82,18.36,18.36,0,0,1-1.82,8.3,17.28,17.28,0,0,1-5.17,6.15,24.67,24.67,0,0,1-8.09,3.83,38.91,38.91,0,0,1-10.56,1.34,40.28,40.28,0,0,1-7-.61,33.48,33.48,0,0,1-6.68-1.87,29.23,29.23,0,0,1-5.9-3.15,22.09,22.09,0,0,1-4.73-4.47,20,20,0,0,1-3.16-5.86,21.94,21.94,0,0,1-1.14-7.26h14.62a13,13,0,0,0,1,5.44,9.23,9.23,0,0,0,2.84,3.62,11.84,11.84,0,0,0,4.39,2,24.2,24.2,0,0,0,5.74.63,17.45,17.45,0,0,0,4.9-.61,10.09,10.09,0,0,0,3.45-1.67,6.63,6.63,0,0,0,2-2.55A7.74,7.74,0,0,0,246.45,200.57Z"/><path class="cls-1" d="M313.47,188.47h-28v18.94h32.83v11.71h-47.4V148.4h47.3v11.8H285.5v16.86h28Z"/><path class="cls-1" d="M382.39,195.56a28.92,28.92,0,0,1-2.43,9.91,23.06,23.06,0,0,1-5.63,7.75,25.94,25.94,0,0,1-8.72,5.05,34.84,34.84,0,0,1-11.68,1.82,30.32,30.32,0,0,1-12.21-2.36,24.92,24.92,0,0,1-9.18-6.77,30.77,30.77,0,0,1-5.78-10.71,45.92,45.92,0,0,1-2-14.11v-4.66a44.93,44.93,0,0,1,2.09-14.14,31.31,31.31,0,0,1,5.9-10.73,25.64,25.64,0,0,1,9.25-6.8,30.14,30.14,0,0,1,12.15-2.38,33.87,33.87,0,0,1,11.68,1.87,25.22,25.22,0,0,1,8.62,5.2,23.53,23.53,0,0,1,5.53,7.91,33.18,33.18,0,0,1,2.53,10H367.92a22.26,22.26,0,0,0-1.09-5.59,11,11,0,0,0-2.46-4.08,10.12,10.12,0,0,0-4.12-2.5,19.27,19.27,0,0,0-6.12-.85q-7.39,0-11,5.37t-3.62,16.63v4.76a50.51,50.51,0,0,0,.8,9.62,20.13,20.13,0,0,0,2.52,6.89,11.14,11.14,0,0,0,4.47,4.16,14.63,14.63,0,0,0,6.63,1.38,20.11,20.11,0,0,0,5.95-.78,10.48,10.48,0,0,0,4.18-2.35,10.72,10.72,0,0,0,2.6-4,19.57,19.57,0,0,0,1.16-5.54Z"/><path class="cls-1" d="M445.48,148.4v46.68a26.81,26.81,0,0,1-2,10.8,22,22,0,0,1-5.63,7.85,24.11,24.11,0,0,1-8.57,4.76,37.79,37.79,0,0,1-21.76,0,24.06,24.06,0,0,1-8.58-4.76,21.68,21.68,0,0,1-5.6-7.85,27,27,0,0,1-2-10.8V148.4h14.57v46.68q0,6.94,3.33,10.12t9.2,3.18q5.92,0,9.2-3.18t3.28-10.12V148.4Z"/><path class="cls-1" d="M483.61,193.23H472v25.89H457.43V148.4h26.28a39.74,39.74,0,0,1,11,1.39,22.83,22.83,0,0,1,8.21,4.08,17.8,17.8,0,0,1,5.15,6.67,22.26,22.26,0,0,1,1.8,9.23,25.64,25.64,0,0,1-.88,7,18,18,0,0,1-6.51,9.69,25.71,25.71,0,0,1-5.24,3.11l15.3,28.9v.68H496.87ZM472,181.43h11.76a15.33,15.33,0,0,0,5-.75,9.88,9.88,0,0,0,3.6-2.14,9,9,0,0,0,2.16-3.3,12.16,12.16,0,0,0,.73-4.3,10.66,10.66,0,0,0-2.85-7.87c-1.89-1.91-4.8-2.87-8.71-2.87H472Z"/><path class="cls-1" d="M563.45,188.47h-28v18.94h32.83v11.71h-47.4V148.4h47.3v11.8H535.48v16.86h28Z"/><path class="cls-1" d="M226.12,258.08a5.23,5.23,0,0,0-.35-2,3.92,3.92,0,0,0-1.22-1.59,9.46,9.46,0,0,0-2.38-1.36,34.47,34.47,0,0,0-3.79-1.31,31.48,31.48,0,0,1-4.36-1.57,14.38,14.38,0,0,1-3.33-2,8.23,8.23,0,0,1-2.11-2.63,7.43,7.43,0,0,1-.74-3.37,7.86,7.86,0,0,1,.8-3.51,8.3,8.3,0,0,1,2.24-2.81,10.53,10.53,0,0,1,3.48-1.86,14.28,14.28,0,0,1,4.53-.67,13.55,13.55,0,0,1,4.89.82,10.92,10.92,0,0,1,3.6,2.19,9,9,0,0,1,2.22,3.14,9.31,9.31,0,0,1,.76,3.69h-4.31a7.09,7.09,0,0,0-.43-2.52,5.17,5.17,0,0,0-1.33-2,6,6,0,0,0-2.23-1.32,9.67,9.67,0,0,0-3.17-.47,10.26,10.26,0,0,0-3,.4,6,6,0,0,0-2.1,1.11,4.29,4.29,0,0,0-1.22,1.66,5.35,5.35,0,0,0-.41,2.1,4,4,0,0,0,.44,1.87,4.66,4.66,0,0,0,1.35,1.56,10,10,0,0,0,2.35,1.32,29.4,29.4,0,0,0,3.45,1.16,31,31,0,0,1,4.78,1.73,13.06,13.06,0,0,1,3.31,2.15,7.91,7.91,0,0,1,1.94,2.7,8.52,8.52,0,0,1,.64,3.4,7.86,7.86,0,0,1-.81,3.59,7.78,7.78,0,0,1-2.28,2.74,10.84,10.84,0,0,1-3.57,1.76,16.91,16.91,0,0,1-4.66.61,16,16,0,0,1-3-.28,14.5,14.5,0,0,1-2.86-.84,12.5,12.5,0,0,1-2.55-1.38,9.81,9.81,0,0,1-2-1.92,8.51,8.51,0,0,1-1.85-5.44h4.3a5.62,5.62,0,0,0,2.43,4.84,7.66,7.66,0,0,0,2.54,1.15,12.43,12.43,0,0,0,3,.37,8.43,8.43,0,0,0,5.2-1.39A4.48,4.48,0,0,0,226.12,258.08Z"/><path class="cls-1" d="M253.23,258.08a5.43,5.43,0,0,0-.34-2,4,4,0,0,0-1.23-1.59,9.46,9.46,0,0,0-2.38-1.36,33.74,33.74,0,0,0-3.79-1.31,31.48,31.48,0,0,1-4.36-1.57,14.6,14.6,0,0,1-3.33-2,8.23,8.23,0,0,1-2.11-2.63,7.43,7.43,0,0,1-.73-3.37,7.86,7.86,0,0,1,.79-3.51,8.3,8.3,0,0,1,2.24-2.81,10.53,10.53,0,0,1,3.48-1.86,14.36,14.36,0,0,1,4.53-.67,13.55,13.55,0,0,1,4.89.82,10.92,10.92,0,0,1,3.6,2.19,9,9,0,0,1,2.22,3.14,9.31,9.31,0,0,1,.76,3.69h-4.3a7.1,7.1,0,0,0-.44-2.52,5.17,5.17,0,0,0-1.33-2,6,6,0,0,0-2.23-1.32,9.67,9.67,0,0,0-3.17-.47,10.26,10.26,0,0,0-3,.4,5.92,5.92,0,0,0-2.09,1.11,4.32,4.32,0,0,0-1.23,1.66,5.35,5.35,0,0,0-.4,2.1,4,4,0,0,0,.43,1.87,4.66,4.66,0,0,0,1.35,1.56,10.12,10.12,0,0,0,2.36,1.32,29.19,29.19,0,0,0,3.44,1.16,31,31,0,0,1,4.78,1.73,13.06,13.06,0,0,1,3.31,2.15,7.91,7.91,0,0,1,1.94,2.7,8.52,8.52,0,0,1,.64,3.4,7.67,7.67,0,0,1-3.09,6.33,10.84,10.84,0,0,1-3.57,1.76,16.78,16.78,0,0,1-4.65.61,15.85,15.85,0,0,1-3-.28,14.39,14.39,0,0,1-2.87-.84,12.77,12.77,0,0,1-2.55-1.38,9.81,9.81,0,0,1-2-1.92,8.51,8.51,0,0,1-1.85-5.44h4.31a5.81,5.81,0,0,0,.66,2.86,5.68,5.68,0,0,0,1.76,2,7.66,7.66,0,0,0,2.54,1.15,12.45,12.45,0,0,0,3,.37,8.45,8.45,0,0,0,5.2-1.39A4.5,4.5,0,0,0,253.23,258.08Z"/><path class="cls-1" d="M267.34,262.79h15.39v3.5H263V233.8h4.31Z"/><path class="cls-1" d="M317.3,251.27H303.22v11.52h16.36v3.5H298.93V233.8h20.42v3.53H303.22v10.44H317.3Z"/><path class="cls-1" d="M349.88,266.29h-4.31l-16.35-25v25h-4.31V233.8h4.31L345.62,259V233.8h4.26Z"/><path class="cls-1" d="M381.39,256a15.15,15.15,0,0,1-1.13,4.28,10.23,10.23,0,0,1-2.38,3.41,10.65,10.65,0,0,1-3.7,2.25,14.45,14.45,0,0,1-5.11.82,12.46,12.46,0,0,1-5.22-1.07,11.42,11.42,0,0,1-4-3.05,13.93,13.93,0,0,1-2.56-4.74,19.58,19.58,0,0,1-.91-6.18v-3.26a19.68,19.68,0,0,1,.92-6.19,13.8,13.8,0,0,1,2.61-4.75,11.49,11.49,0,0,1,4.12-3.06,13.16,13.16,0,0,1,5.43-1.08,13.53,13.53,0,0,1,4.86.8,10.27,10.27,0,0,1,3.61,2.24,10.67,10.67,0,0,1,2.35,3.44,14.87,14.87,0,0,1,1.12,4.41h-4.31a14.57,14.57,0,0,0-.76-3.06,6.84,6.84,0,0,0-1.41-2.32,6.09,6.09,0,0,0-2.25-1.48,9,9,0,0,0-3.21-.51,8.29,8.29,0,0,0-3.81.84,7.81,7.81,0,0,0-2.74,2.34,10.61,10.61,0,0,0-1.66,3.64,18.64,18.64,0,0,0-.56,4.7v3.3a19.4,19.4,0,0,0,.5,4.48,11.72,11.72,0,0,0,1.53,3.67,7.23,7.23,0,0,0,6.36,3.39,10.5,10.5,0,0,0,3.46-.5,5.93,5.93,0,0,0,2.33-1.41,6.34,6.34,0,0,0,1.44-2.28,15.44,15.44,0,0,0,.78-3.07Z"/><path class="cls-1" d="M399.15,253.15h-7.63v13.14h-4.31V233.8H398c3.66,0,6.47.84,8.44,2.5s3,4.09,3,7.28a8.74,8.74,0,0,1-1.64,5.28,9.68,9.68,0,0,1-4.56,3.37L410.8,266v.26h-4.6Zm-7.63-3.5h6.58a8.84,8.84,0,0,0,3-.48,6.21,6.21,0,0,0,2.17-1.3,5.18,5.18,0,0,0,1.31-1.92,6.4,6.4,0,0,0,.43-2.37,7.43,7.43,0,0,0-.41-2.56,5,5,0,0,0-1.28-2,5.91,5.91,0,0,0-2.21-1.28,10.37,10.37,0,0,0-3.19-.44h-6.45Z"/><path class="cls-1" d="M424.21,250.11l8.48-16.31h4.86l-11.2,20.38v12.11h-4.28V254.18l-11.2-20.38h4.9Z"/><path class="cls-1" d="M446,253.57v12.72h-4.28V233.8h12a14.87,14.87,0,0,1,4.89.74,10.11,10.11,0,0,1,3.56,2.06,8.71,8.71,0,0,1,2.18,3.15,10.33,10.33,0,0,1,.75,4,11.06,11.06,0,0,1-.75,4.19,8,8,0,0,1-2.18,3.09,9.87,9.87,0,0,1-3.56,1.91,16.79,16.79,0,0,1-4.89.65Zm0-3.5h7.7a10,10,0,0,0,3.23-.47,6,6,0,0,0,2.21-1.3,5.12,5.12,0,0,0,1.26-2,7.85,7.85,0,0,0,.4-2.53,7.58,7.58,0,0,0-.4-2.42,5.66,5.66,0,0,0-1.26-2.07,6.35,6.35,0,0,0-2.21-1.43,8.92,8.92,0,0,0-3.23-.53H446Z"/><path class="cls-1" d="M493,237.33H482.59v29h-4.27v-29H467.9V233.8H493Z"/><path class="cls-1" d="M502.45,266.29h-4.29V233.8h4.29Z"/><path class="cls-1" d="M535.27,251.1a21.68,21.68,0,0,1-.92,6.55,14.65,14.65,0,0,1-2.63,4.92,11.35,11.35,0,0,1-4.1,3.1,13.18,13.18,0,0,1-5.38,1.07,13,13,0,0,1-5.29-1.07,11.7,11.7,0,0,1-4.15-3.1,14.6,14.6,0,0,1-2.7-4.92,20.74,20.74,0,0,1-1-6.55V249a20.92,20.92,0,0,1,1-6.55,14.64,14.64,0,0,1,2.68-4.94,11.48,11.48,0,0,1,4.13-3.11,12.77,12.77,0,0,1,5.29-1.08,13.06,13.06,0,0,1,5.38,1.08,11.4,11.4,0,0,1,4.13,3.11,14.41,14.41,0,0,1,2.64,4.94,21.87,21.87,0,0,1,.92,6.55ZM531,249a20.21,20.21,0,0,0-.59-5.13,10.84,10.84,0,0,0-1.73-3.75,7.49,7.49,0,0,0-2.78-2.3,8.52,8.52,0,0,0-3.71-.78,8.28,8.28,0,0,0-3.62.78,7.57,7.57,0,0,0-2.78,2.3,11.06,11.06,0,0,0-1.77,3.75,18.85,18.85,0,0,0-.63,5.13v2.1a19,19,0,0,0,.64,5.15,11.05,11.05,0,0,0,1.8,3.76,7.58,7.58,0,0,0,2.78,2.31,8.31,8.31,0,0,0,3.62.78,8.55,8.55,0,0,0,3.73-.78,7.33,7.33,0,0,0,2.75-2.31,11,11,0,0,0,1.71-3.76,20.4,20.4,0,0,0,.58-5.15Z"/><path class="cls-1" d="M566.67,266.29h-4.31l-16.35-25v25H541.7V233.8H546L562.41,259V233.8h4.26Z"/></svg>