<svg id="Layer_1" data-name="Layer 1" xmlns="http://www.w3.org/2000/svg" viewBox="0 0 615.09 388.34"><defs><style>.cls-1{fill:#fff;}</style></defs><g id="EaaHTO"><path class="cls-1" d="M310.68,68.66c38.4-27.12,103.39-29.33,147.1,16.45,43,45,42.52,115.89-.81,160.13-44.08,45-108.62,42.35-146.24,15.53,29.15-25.39,45.06-57.2,45-96S339.94,94.18,310.68,68.66Z"/><path class="cls-1" d="M295.06,68.66C265.88,94.05,250,125.87,250,164.74s15.84,70.51,44.87,95.89c-29.37,22.44-90.15,32.09-137.49-7.4C108.05,212.09,101.9,138.08,144,89.43,187.22,39.56,255.17,40.46,295.06,68.66Z"/><path class="cls-1" d="M258.64,162.88c1.54-35.59,15.43-64.55,42.19-87.29,1.66-1.41,2.64-1.24,4.18.09,30.6,26.5,44.9,59.9,41.31,100.26-2.79,31.21-16.91,56.93-40.71,77.34-2,1.72-3.22,1.95-5.35.11C272.42,229.39,258.83,198.94,258.64,162.88Z"/><path class="cls-1" d="M142,338h-6.47V307.74h6.25l.56,2.88a11.65,11.65,0,0,1,9.81-3.82,12,12,0,0,1,9,5.2c3.68-4.63,8.31-6,13.74-4.89,5,1,8.39,4.14,8.76,9.06.53,7.18.14,14.44.14,21.84h-6.51c0-4.79,0-9.46,0-14.13a36.79,36.79,0,0,0-.18-4.7c-.59-4.2-2.65-6.05-6.56-6.05s-7,2.21-7.23,6.18c-.35,5.37-.2,10.77-.27,16.16,0,.77-.09,1.54-.14,2.51h-6.61v-9.85c0-2.65.07-5.3-.05-7.94-.2-4.6-2.49-7-6.54-7.06-4.36-.07-7.27,2.47-7.46,7-.22,5.19-.08,10.39-.11,15.59C142.15,336.36,142.09,337,142,338Z"/><path class="cls-1" d="M471.46,338h-6.11l-.74-2.81a13.14,13.14,0,0,1-10.79,3.68,14.88,14.88,0,0,1-9.75-4.86c-5.32-5.89-5.48-15.65-.34-21.92s12.74-6.9,21.13-1.77V295.44h6.6Zm-6.11-15.19c0-5.81-3.9-9.81-9.41-9.73-5.33.09-9.07,4.14-9,9.8s3.77,9.71,9.1,9.75S465.38,328.6,465.35,322.84Z"/><path class="cls-1" d="M402.83,310.44l.5-2.54c.27-.2.34-.3.43-.31,6.08-.49,6.08-.49,6.08,5.58q0,10.72,0,21.47V338H403.3c-.15-.88-.28-1.71-.47-2.86a13.35,13.35,0,0,1-11.75,3.64,14.71,14.71,0,0,1-9.29-5.17,17.31,17.31,0,0,1,.63-22.18C387.76,305.73,395.68,305.26,402.83,310.44Zm-8.48,2.68c-5.51,0-9.32,3.94-9.36,9.79-.05,5.58,3.79,9.67,9.13,9.74s9.39-4.06,9.38-9.8S399.67,313.16,394.35,313.12Z"/><path class="cls-1" d="M214.72,310.52c.19-1.13.34-1.95.5-2.88h6.16V338h-6.17l-.47-2.88c-3.78,3.39-7.91,4.58-12.62,3.54a14.6,14.6,0,0,1-8.8-5.44c-4.94-6.43-4.47-16.19,1.07-21.9S207.64,305.31,214.72,310.52Zm-17.86,12.29c0,5.81,3.78,9.87,9.28,9.85,5.32,0,9.13-4.06,9.14-9.71,0-5.84-3.8-9.86-9.3-9.83S196.89,317.09,196.86,322.81Z"/><path class="cls-1" d="M318.5,325.43H296.66c.12,7.45,8,9.48,17.64,4.6l3.25,4.64c-5.76,4.4-11.87,5.46-18.4,3.3-6-2-9.09-6.6-9.79-12.73-1.21-10.64,5.31-18.51,15.14-18.46C314,306.83,320.82,315.72,318.5,325.43Zm-6.78-5.34c-.44-4.89-3.52-7.6-8-7.34a7.12,7.12,0,0,0-7.05,7.34Z"/><path class="cls-1" d="M231.16,329.92a18.12,18.12,0,0,0,13.23,2.78c1.9-.35,3.84-1,3.89-3.3s-2-2.64-3.73-3c-2.76-.62-5.63-.83-8.35-1.6-4.52-1.28-6.84-4.19-6.9-8.06a8.72,8.72,0,0,1,6.41-8.86c6.46-2.13,12.67-1.23,18.85,2-1,1.89-1.84,3.51-2.65,5.07a69.06,69.06,0,0,0-7.81-2,12.32,12.32,0,0,0-5.46.51,3.68,3.68,0,0,0-2.11,2.7c0,.86,1.26,2.1,2.24,2.5a26.78,26.78,0,0,0,4.87,1,41.92,41.92,0,0,1,5.71,1.33c3.38,1.19,5.69,3.43,5.93,7.25a8.71,8.71,0,0,1-4.85,8.7c-6.15,3.42-16.33,2.52-22.22-2.1Z"/><path class="cls-1" d="M283.52,307.42v6.26H273c0,5.37-.14,10.43.06,15.48.09,2.48,2,3.57,4.33,3.39a44.75,44.75,0,0,0,5.88-1.25,22.34,22.34,0,0,1,1.34,4.12,2.67,2.67,0,0,1-1.33,2.09,14.61,14.61,0,0,1-11.71.58c-3.67-1.39-5.16-4.47-5.29-8.11-.18-5.27-.05-10.55-.05-16.11l-6.18-.34v-5.88l6-.29v-8.94h6.75v9Z"/><path class="cls-1" d="M371.62,315.49c-8.16-3.29-12.37-3-15.38,1.06a11,11,0,0,0,.21,12.9c3.22,3.88,8,4.17,15.1.73l3.1,5c-4.84,4.1-10.25,4.53-15.85,3.12a14.1,14.1,0,0,1-11.07-11.7c-1.21-6.35,0-12.27,5.41-16.4s11.77-4.53,18.1-1.93c3.7,1.52,3.69,1.81,1.6,5.28C372.44,314.23,372,314.87,371.62,315.49Z"/><path class="cls-1" d="M332.55,338H326V308c4.74-1.21,6.13-.78,6.65,2,1.93-1,3.77-2.37,5.83-2.87s4.35-.1,7-.1l-2.17,6.58c-9-.9-10.8.76-10.81,9.7C332.55,328.11,332.55,333,332.55,338Z"/><path class="cls-1" d="M425.27,338H418.6v-6.82c0-6.76.11-13.53-.07-20.29-.07-2.64.59-3.87,3.38-3.43a20,20,0,0,0,3,0c.19,1,.33,1.86.54,3,3.51-3.88,7.57-4.54,12.46-2.91l-1.84,5.85c-9.29-.64-10.81.8-10.81,10C425.26,328.24,425.27,333,425.27,338Z"/></g></svg>