<svg width="34" height="20" viewBox="0 0 34 20" fill="none" xmlns="http://www.w3.org/2000/svg">
<path d="M1.76252 13.5722C0.597725 12.9285 0.0567072 11.8863 0 10.5268C0.0720334 9.3789 0.49044 8.38116 1.5127 7.71141C4.66531 5.65002 7.79647 3.54572 10.9889 1.5625C15.6849 -1.34949 21.7418 -0.0743366 24.9726 4.41473C25.6531 5.36036 25.5857 5.70979 24.5864 6.35962C23.3491 7.16476 22.1107 7.96735 20.8713 8.76738C20.1173 9.25476 19.8782 9.21491 19.331 8.53749C17.8704 6.73359 16.1861 6.47917 14.2335 7.75125C11.3123 9.65375 8.38755 11.5501 5.45922 13.4404C4.2653 14.2082 3.00395 14.2572 1.76252 13.5722ZM31.802 12.1269C28.89 14.0795 25.9228 15.9585 22.994 17.8926C21.7311 18.7264 20.4238 19.436 18.9218 19.7134C18.1754 19.8498 17.4183 19.9326 16.9371 20C12.9369 19.8467 10.0402 18.2237 7.91601 15.1845C7.52366 14.6235 7.71371 14.1576 8.22254 13.8189C9.62489 12.8993 11.0426 11.9966 12.4526 11.0862C12.9737 10.7506 13.3722 10.8487 13.7553 11.3483C15.1761 13.2135 16.9263 13.5063 18.885 12.2342C21.7434 10.3782 24.6232 8.55588 27.4539 6.65389C29.9536 4.9772 32.9009 6.50063 33.1155 9.07544C33.2166 10.3245 32.8442 11.4234 31.7943 12.1269H31.802Z" fill="white"/>
</svg>
