<svg width="108" height="20" viewBox="0 0 108 20" fill="none" xmlns="http://www.w3.org/2000/svg">
<path d="M42.7271 9.64894C42.7271 6.09928 45.1799 3.73828 48.8511 3.73828C50.7414 3.73828 52.2724 4.36357 53.4128 5.59882L52.0224 7.00626C51.3663 6.16179 50.2572 5.56756 48.8823 5.56756C46.5546 5.56756 45.0079 7.20951 45.0079 9.66466C45.0079 12.1509 46.5858 13.7928 48.9135 13.7928C50.4757 13.7928 51.5537 13.0891 52.2881 11.9634L53.7722 13.2926C52.663 14.8093 50.9757 15.6225 48.8666 15.6225C45.1954 15.6225 42.7271 13.2302 42.7271 9.64894Z" fill="white"/>
<path d="M41.9361 11.9553C41.9361 14.176 40.249 15.6615 37.5307 15.6615C36.1091 15.6615 34.75 15.2392 34 14.5042L34.8279 12.8936C35.3904 13.488 36.281 13.8318 37.2807 13.8318C38.7493 13.8318 39.6554 13.0813 39.6554 11.9711C39.6554 10.8606 38.7805 10.1569 37.4526 10.1569C36.8589 10.1569 36.3434 10.2821 35.8746 10.5324L35.281 9.42233L38.468 5.76299H34.5312V3.93352H41.3425V5.3095L38.3587 8.4841C40.5145 8.53089 41.9361 9.92241 41.9361 11.9553Z" fill="white"/>
<path fill-rule="evenodd" clip-rule="evenodd" d="M58.4905 6.84429C55.7879 6.84429 53.9757 8.59553 53.9757 11.207C53.9757 13.8341 55.7879 15.5855 58.4905 15.5855C61.1776 15.5855 62.9898 13.8341 62.9898 11.207C62.9898 8.59553 61.1776 6.84429 58.4905 6.84429ZM58.4905 8.65804C59.8654 8.65804 60.787 9.67469 60.787 11.207C60.787 12.7398 59.8654 13.7559 58.4905 13.7559C57.1004 13.7559 56.1785 12.7398 56.1785 11.207C56.1785 9.67469 57.1004 8.65804 58.4905 8.65804Z" fill="white"/>
<path d="M77.1461 10.1282V15.4291H75.0215V10.472C75.0215 9.37768 74.3342 8.65804 73.2873 8.65804C72.2565 8.65804 71.5689 9.37768 71.5689 10.472V15.4291H69.4443V10.472C69.4443 9.37768 68.757 8.65804 67.7104 8.65804C66.6792 8.65804 65.9917 9.37768 65.9917 10.472V15.4291H63.8671V7.00076H65.9138L65.945 8.0013C66.5386 7.23526 67.429 6.84429 68.4602 6.84429C69.5692 6.84429 70.4598 7.3133 71.0067 8.11079C71.6159 7.28224 72.5999 6.84429 73.7248 6.84429C75.7715 6.84429 77.1461 8.15796 77.1461 10.1282Z" fill="white"/>
<path d="M91.8861 15.4291V10.1282C91.8861 8.15796 90.5114 6.84429 88.4647 6.84429C87.3398 6.84429 86.3558 7.28224 85.7464 8.11079C85.1997 7.3133 84.3091 6.84429 83.1999 6.84429C82.1689 6.84429 81.2783 7.23526 80.6849 8.0013L80.6537 7.00076H78.607V15.4291H80.7316V10.472C80.7316 9.37768 81.4191 8.65804 82.4501 8.65804C83.4969 8.65804 84.1842 9.37768 84.1842 10.472V15.4291H86.3088V10.472C86.3088 9.37768 86.9964 8.65804 88.0272 8.65804C89.0741 8.65804 89.7614 9.37768 89.7614 10.472V15.4291H91.8861Z" fill="white"/>
<path fill-rule="evenodd" clip-rule="evenodd" d="M100.341 10.1282V15.4291H98.295L98.2479 14.2251C97.6856 15.1008 96.7171 15.5855 95.6859 15.5855C93.9361 15.5855 92.7645 14.5376 92.7645 12.9743C92.7645 11.3479 94.2018 10.2845 96.3575 10.2845C96.9356 10.2845 97.5762 10.347 98.2166 10.472V10.3159C98.2166 9.18995 97.4669 8.51749 96.1859 8.51749C95.389 8.51749 94.7486 8.752 94.2173 9.18995L93.2957 7.93879C94.2018 7.20382 95.2643 6.84429 96.7326 6.84429C98.8885 6.84429 100.341 8.14224 100.341 10.1282ZM98.2166 11.9109C97.6699 11.8014 97.1077 11.7389 96.6232 11.7389C95.6234 11.7389 94.9828 12.2077 94.9828 12.9273C94.9828 13.6151 95.4359 14.0686 96.2952 14.0686C97.2793 14.0686 98.2011 13.2869 98.2166 11.9109Z" fill="white"/>
<path d="M102.095 13.3024L101.298 14.5848C102.064 15.2573 103.204 15.5855 104.485 15.5855C106.594 15.5855 108 14.5221 108 12.9273C108 11.4415 106.86 10.7847 105.422 10.4097L104.719 10.2062C103.985 10.0187 103.454 9.78399 103.454 9.28372C103.454 8.79898 103.985 8.51749 104.751 8.51749C105.501 8.51749 106.219 8.68949 106.891 9.06474L107.781 7.67303C106.953 7.11005 105.875 6.84429 104.61 6.84429C102.61 6.84429 101.298 7.95451 101.298 9.62771C101.298 10.9569 102.267 11.504 103.688 11.8794L104.391 12.0671C105.235 12.2863 105.829 12.5674 105.829 13.0834C105.829 13.5994 105.297 13.9279 104.516 13.9279C103.688 13.9279 102.892 13.7716 102.095 13.3024Z" fill="white"/>
<path fill-rule="evenodd" clip-rule="evenodd" d="M20 0V20H0V0H20Z" fill="#00A59A"/>
<path d="M5.30995 12.3433H3.07609C3.07501 12.3433 3.07393 12.3432 3.07286 12.3431C3.07216 12.343 3.07146 12.3429 3.07077 12.3428C3.05484 12.3398 3.0443 12.3245 3.04725 12.3085L3.46413 10.0439L3.85697 7.58994C3.85925 7.57567 3.87153 7.56519 3.88593 7.56519H6.62557C6.63641 7.56519 6.64636 7.57118 6.65146 7.58077L6.74677 7.76016C6.75037 7.76693 6.75118 7.77483 6.74905 7.7822L6.09391 10.043L6.09357 10.0441L5.33779 12.3231C5.3338 12.3352 5.32259 12.3433 5.30995 12.3433Z" fill="white"/>
<path d="M7.97367 12.3433H10.1981C10.2107 12.3433 10.2219 12.3352 10.2259 12.3232L10.9868 10.0441L10.9872 10.043L11.6467 7.78227C11.6489 7.77486 11.6481 7.76691 11.6444 7.76011L11.5485 7.5807C11.5434 7.57115 11.5334 7.56519 11.5226 7.56519H8.76399C8.7496 7.56519 8.73733 7.57566 8.73503 7.58991L8.33962 10.0433L7.94478 12.3088C7.94199 12.3248 7.95267 12.34 7.96862 12.3428L7.97008 12.343L7.97367 12.3433Z" fill="white"/>
<path d="M13.0039 12.3433H15.2378C15.2504 12.3433 15.2617 12.3352 15.2656 12.3231L16.0214 10.0441L16.0218 10.043L16.6769 7.7822C16.679 7.77483 16.6782 7.76693 16.6746 7.76016L16.5793 7.58077C16.5742 7.57118 16.5643 7.56519 16.5534 7.56519H13.8138C13.7994 7.56519 13.7871 7.57567 13.7848 7.58994L13.3921 10.0432L12.9751 12.3085C12.9722 12.3245 12.9827 12.3398 12.9986 12.3428C13.0004 12.3431 13.0022 12.3433 13.0039 12.3433Z" fill="white"/>
</svg>
