<svg width="133" height="46" viewBox="0 0 133 46" fill="none" xmlns="http://www.w3.org/2000/svg">
<path fill-rule="evenodd" clip-rule="evenodd" d="M119.081 22.781V35.0476C119.081 36.9832 117.499 38.5524 115.547 38.5524H108.477V36.1429H114.663C115.395 36.1429 115.988 35.5544 115.988 34.8286V34.3905H113.227C109.993 34.3905 107.372 31.7916 107.372 28.5857C107.372 25.3798 109.993 22.781 113.227 22.781H119.081ZM115.988 25.4095V31.981H113.558C111.728 31.981 110.244 30.5099 110.244 28.6952C110.244 26.8806 111.728 25.4095 113.558 25.4095H115.988Z" fill="white"/>
<path d="M106.488 18.619H102.953V34.3905H106.488V18.619Z" fill="white"/>
<path fill-rule="evenodd" clip-rule="evenodd" d="M84.8372 34.3905L91.6861 18.619H95.2209L102.07 34.3905H98.093L96.5465 30.8857H89.9186L88.593 34.3905H84.8372ZM90.8023 28.0381H95.8837L93.4535 22.1238L90.8023 28.0381Z" fill="white"/>
<path d="M26.5116 7.44762L22.093 0L0 37.6762L4.63953 46H35.5698L30.9302 37.6762H9.27907L26.5116 7.44762Z" fill="white"/>
<path d="M15.0233 34.6095H24.5233L28.7209 27.381L39.7674 46L44.407 38.1143L28.7209 11.1714L15.0233 34.6095Z" fill="white"/>
<path d="M51.6977 18.8381H48.1628V29.3524C48.1628 32.2558 50.5367 34.6095 53.4651 34.6095H59.2093V31.7619H53.907C52.6868 31.7619 51.6977 30.7812 51.6977 29.5714V18.8381Z" fill="white"/>
<path d="M70.6977 23H67.3837V31.8115H63.186V23H60.093V30.8857C60.093 32.8213 61.6756 34.3905 63.6279 34.3905H70.6977V23Z" fill="white"/>
<path d="M75.7791 23H71.5814L76 28.6952L71.5814 34.3905H75.5581L77.9884 31.2265L80.4186 34.3905H84.1744L79.7558 28.6952L84.3953 23H80.4186L77.9884 26.164L75.7791 23Z" fill="white"/>
<path fill-rule="evenodd" clip-rule="evenodd" d="M126.593 34.8286C130.132 34.8286 133 31.9845 133 28.4762C133 24.9679 130.132 22.1238 126.593 22.1238C123.055 22.1238 120.186 24.9679 120.186 28.4762C120.186 31.9845 123.055 34.8286 126.593 34.8286ZM126.593 32.2C128.179 32.2 129.465 30.6309 129.465 28.6952C129.465 26.7596 128.179 25.1905 126.593 25.1905C125.007 25.1905 123.721 26.7596 123.721 28.6952C123.721 30.6309 125.007 32.2 126.593 32.2Z" fill="white"/>
</svg>
