<svg id="Layer_1" data-name="Layer 1" xmlns="http://www.w3.org/2000/svg" viewBox="0 0 615.09 388.34"><defs><style>.cls-1{fill:#fff;}</style></defs><g id="RF5zby"><path class="cls-1" d="M535.27,277.08c-11.6.05-23.2.13-34.8.07-.57,0-1.49-1.1-1.65-1.82-1.33-5.92-2.52-11.87-3.75-17.81-.19-.87-.4-1.73-.62-2.73-.76,0-1.45-.15-2.15-.15-15.08,0-30.17,0-45.26,0-2,0-3,.56-3.62,2.52-2.06,6.08-4.3,12.1-6.62,18.09a3.35,3.35,0,0,1-2.25,1.94c-12.67.13-25.35.09-38,.09a7.41,7.41,0,0,1-1.14-.25c.38-1,.71-2,1.1-2.91q20.67-49.38,41.36-98.76c5-11.85,10.08-23.65,14.84-35.58,3.62-9.08,10.11-13.45,19.78-13.42s19.46,0,29.19-.06c1.61,0,2.3.42,2.65,2.12q10.06,48.76,20.26,97.49,5,23.7,9.92,47.41a16,16,0,0,0,.79,2.2ZM476.58,168.34l-.56-.11-20.33,55.44H488C484.15,205.06,480.37,186.7,476.58,168.34Z"/><path class="cls-1" d="M53.17,127.63c.84-.46,1.69-1.32,2.54-1.32,20.44,0,40.88-.13,61.32.06,11.06.11,15.87,4.86,18.06,16.13,5.44,28.12,11.07,56.19,16.63,84.28.08.4.22.79.54,1.93,1.93-5.07,3.63-9.43,5.25-13.81q15.88-42.78,31.67-85.59c.9-2.44,2.08-3.12,4.6-3.08,11.42.13,22.85,0,34.27,0h3.49c-.34,1-.53,1.77-.81,2.47q-29.65,72.89-59.26,145.79c-.86,2.11-1.94,2.71-4.11,2.69q-17.67-.17-35.35,0c-2.26,0-3.24-.62-3.82-2.87q-8.47-32.51-17.14-64.95Q103,178.83,94.9,148.31a5.63,5.63,0,0,0-3-3.76,159.87,159.87,0,0,0-35.41-14.29c-1.11-.3-2.21-.68-3.31-1Z"/><path class="cls-1" d="M292.17,237.88c4.27,1.79,8.41,3.61,12.62,5.26a73.06,73.06,0,0,0,35,4.44,24.32,24.32,0,0,0,12.55-5c6.09-4.78,6.7-12.85.84-17.84-4-3.37-8.63-5.94-13.09-8.69-7.2-4.44-14.92-8.16-21.66-13.19-22.84-17-17.46-42.76-5.85-57,8.52-10.46,19.86-16.4,32.73-19.57a98.24,98.24,0,0,1,55.9,2.63c2,.69,2.47,1.54,2.09,3.66-1.65,9.22-3.07,18.48-4.58,27.73-.1.6-.27,1.18-.48,2.09l-3.47-1.5c-12.1-5.2-24.65-7.16-37.67-4.84a24.62,24.62,0,0,0-8.14,3.22c-7,4.19-7.8,11.88-1.32,16.76,5.65,4.25,12.16,7.38,18.26,11,5.34,3.22,10.92,6.12,15.9,9.82,16.83,12.5,19.85,30.28,12.92,48.49-5.13,13.46-15.46,21.95-28.45,27.51-10.84,4.64-22.27,6.44-33.94,6.6a124.53,124.53,0,0,1-41.1-6.19c-.93-.3-1.82-.74-2.76-1a2.1,2.1,0,0,1-1.7-2.76c1.7-10.21,3.33-20.43,5-30.65A5.53,5.53,0,0,1,292.17,237.88Z"/><path class="cls-1" d="M286.47,126.62q-12.17,75.19-24.33,150.43h-39c1.08-6.84,2.11-13.52,3.19-20.18Q234.51,206,242.75,155.2q2.16-13.33,4.3-26.67c.21-1.35.42-2.32,2.19-2.31,12,.08,23.91.07,35.86.1A7.93,7.93,0,0,1,286.47,126.62Z"/></g></svg>