<svg xmlns="http://www.w3.org/2000/svg" xmlns:xlink="http://www.w3.org/1999/xlink" viewBox="0 0 697.74 232.89"><defs><style>.cls-1{fill:url(#linear-gradient);}.cls-2{fill:url(#linear-gradient-2);}.cls-3{fill:url(#linear-gradient-3);}.cls-4{fill:url(#linear-gradient-4);}.cls-5{font-size:122.36px;fill:#fff;stroke:#0c0c0c;stroke-miterlimit:10;font-family:ArtifaktElement-Bold, Artifakt Element;font-weight:700;}.cls-6{letter-spacing:-0.02em;}.cls-7{letter-spacing:-0.01em;}.cls-8{letter-spacing:-0.02em;}.cls-9{letter-spacing:-0.02em;}</style><linearGradient id="linear-gradient" x1="182.81" y1="578.82" x2="-2.19" y2="566.37" gradientTransform="translate(36.9 -511.76)" gradientUnits="userSpaceOnUse"><stop offset="0" stop-color="#00c4ff"/><stop offset="1" stop-color="#001973"/></linearGradient><linearGradient id="linear-gradient-2" x1="102.95" y1="103.2" x2="4.5" y2="96.57" gradientTransform="translate(13.53 11.93)" gradientUnits="userSpaceOnUse"><stop offset="0" stop-color="#001973"/><stop offset="1" stop-color="#00c4ff"/></linearGradient><linearGradient id="linear-gradient-3" x1="1273.83" y1="3612.92" x2="1088.83" y2="3600.47" gradientTransform="translate(1271.21 3778.76) rotate(180)" xlink:href="#linear-gradient"/><linearGradient id="linear-gradient-4" x1="1193.96" y1="3137.3" x2="1095.5" y2="3130.68" gradientTransform="translate(1294.58 3255.07) rotate(180)" xlink:href="#linear-gradient-2"/></defs><g id="graphics"><path class="cls-1" d="M197.17,26.22c.6,13.62-8.52,22.43-27.08,29.23-22.73,8.33-46.22,16.9-69.11,25.13-25.36,9.12-31.68,20.27-13.47,35C81.59,123.66,61,122.17,49.57,121c-12.76-4.84-16.48-15.44-15.75-24.11,1-12.32,11.48-24,25.81-32.38Q128.24,32.18,197.05,0,197.05,13.11,197.17,26.22Z"/><path class="cls-2" d="M87.51,115.55s-2.76-1.4-7.33-3.94c-21.62-12-49.85-30.68-20.55-47.11A114.71,114.71,0,0,0,34.94,80.41c-20.73,17.34-16.69,45.24-15.69,66.05.48,10,19.39,12.23,31.42,8.23,13.25-4.4,27.38-9.35,40.2-13.66C110.54,134.41,100.86,122.26,87.51,115.55Z"/><path class="cls-3" d="M19.92,206.68c-.6-13.63,8.52-22.44,27.09-29.24,22.74-8.32,46.23-16.9,69.11-25.13,25.35-9.11,31.68-20.27,13.46-35,5.93-8.11,26.56-6.62,37.95-5.44,12.76,4.85,16.47,15.45,15.75,24.11-1,12.32-11.49,24.05-25.81,32.39Q88.85,200.71,20,232.89,20,219.78,19.92,206.68Z"/><path class="cls-4" d="M129.58,117.34s2.77,1.41,7.33,4c21.64,12,49.85,30.67,20.56,47.11a114.65,114.65,0,0,0,24.68-15.92c20.74-17.34,16.71-45.24,15.7-66-.48-10-19.39-12.22-31.42-8.23-13.25,4.41-27.39,9.35-40.2,13.66C106.56,98.48,116.23,110.63,129.58,117.34Z"/><text class="cls-5" transform="translate(237.29 156.57) scale(0.71 1)"><tspan class="cls-6">SY</tspan><tspan class="cls-7" x="141.32" y="0">S</tspan><tspan class="cls-8" x="214.61" y="0">T</tspan><tspan class="cls-9" x="279.22" y="0">r</tspan><tspan x="328.16" y="0">ading</tspan></text></g></svg>