<svg xmlns="http://www.w3.org/2000/svg" xmlns:xlink="http://www.w3.org/1999/xlink" viewBox="0 0 188.94 201.19"><defs><style>.cls-1{fill:url(#linear-gradient);}.cls-2{fill:url(#linear-gradient-2);}.cls-3{fill:url(#linear-gradient-3);}.cls-4{fill:url(#linear-gradient-4);}</style><linearGradient id="linear-gradient" x1="157.67" y1="573.58" x2="-8.98" y2="562.37" gradientTransform="translate(36.9 -511.76)" gradientUnits="userSpaceOnUse"><stop offset="0" stop-color="#00c4ff"/><stop offset="1" stop-color="#001973"/></linearGradient><linearGradient id="linear-gradient-2" x1="87.9" y1="88.07" x2="-0.39" y2="82.12" gradientTransform="translate(13.53 11.93)" gradientUnits="userSpaceOnUse"><stop offset="0" stop-color="#001973"/><stop offset="1" stop-color="#00c4ff"/></linearGradient><linearGradient id="linear-gradient-3" x1="-224.86" y1="3575.99" x2="-391.5" y2="3564.77" gradientTransform="translate(-230.49 3715.36) rotate(180)" xlink:href="#linear-gradient"/><linearGradient id="linear-gradient-4" x1="-294.62" y1="3090.47" x2="-382.92" y2="3084.53" gradientTransform="translate(-207.12 3191.67) rotate(180)" xlink:href="#linear-gradient-2"/></defs><g id="graphics"><path class="cls-1" d="M174,28.58c.54,10.88-7.65,17.91-24.32,23.34-20.41,6.64-41.5,13.48-62,20C64.9,79.25,59.23,88.15,75.58,99.88c-5.32,6.47-23.85,5.28-34.07,4.34C30.05,100.36,26.72,91.9,27.37,85c.92-9.83,10.31-19.19,23.17-25.84q61.62-25.8,123.39-51.48Q173.93,18.12,174,28.58Z"/><path class="cls-2" d="M75.58,99.88S73.09,98.76,69,96.73C49.58,87.12,24.23,72.25,50.54,59.14a104.81,104.81,0,0,0-22.17,12.7c-18.61,13.84-15,36.1-14.09,52.71.43,8,17.42,9.76,28.22,6.57,11.89-3.52,24.58-7.46,36.09-10.9C96.25,114.94,87.56,105.23,75.58,99.88Z"/><path class="cls-3" d="M14.89,172.61c-.54-10.88,7.65-17.91,24.32-23.33,20.42-6.65,41.51-13.49,62.05-20.06,22.77-7.28,28.45-16.18,12.09-27.91C118.67,94.84,137.2,96,147.43,97c11.45,3.87,14.78,12.32,14.13,19.24-.92,9.83-10.31,19.19-23.16,25.85Q76.78,167.85,15,193.53,15,183.08,14.89,172.61Z"/><path class="cls-4" d="M113.35,101.31s2.49,1.12,6.58,3.15c19.43,9.62,44.76,24.48,18.47,37.6a106.11,106.11,0,0,0,22.16-12.7c18.61-13.85,15-36.11,14.09-52.72-.43-8-17.41-9.76-28.22-6.57-11.89,3.52-24.58,7.46-36.09,10.91C92.68,86.26,101.37,96,113.35,101.31Z"/></g></svg>